<?xml version="1.0" encoding="utf-8"?>
<svg xmlns="http://www.w3.org/2000/svg" xmlns:xlink="http://www.w3.org/1999/xlink" width="600" height="400" viewBox="0 0 2400 1600">
<defs>
  <clipPath id="clip670">
    <rect x="0" y="0" width="2400" height="1600"/>
  </clipPath>
</defs>
<path clip-path="url(#clip670)" d="M0 1600 L2400 1600 L2400 0 L0 0  Z" fill="#ffffff" fill-rule="evenodd" fill-opacity="1"/>
<defs>
  <clipPath id="clip671">
    <rect x="480" y="0" width="1681" height="1600"/>
  </clipPath>
</defs>
<path clip-path="url(#clip670)" d="M256.556 1423.18 L2352.76 1423.18 L2352.76 47.2441 L256.556 47.2441  Z" fill="#ffffff" fill-rule="evenodd" fill-opacity="1"/>
<defs>
  <clipPath id="clip672">
    <rect x="256" y="47" width="2097" height="1377"/>
  </clipPath>
</defs>
<polyline clip-path="url(#clip672)" style="stroke:#000000; stroke-linecap:round; stroke-linejoin:round; stroke-width:2; stroke-opacity:0.1; fill:none" points="315.882,1423.18 315.882,47.2441 "/>
<polyline clip-path="url(#clip672)" style="stroke:#000000; stroke-linecap:round; stroke-linejoin:round; stroke-width:2; stroke-opacity:0.1; fill:none" points="810.269,1423.18 810.269,47.2441 "/>
<polyline clip-path="url(#clip672)" style="stroke:#000000; stroke-linecap:round; stroke-linejoin:round; stroke-width:2; stroke-opacity:0.1; fill:none" points="1304.66,1423.18 1304.66,47.2441 "/>
<polyline clip-path="url(#clip672)" style="stroke:#000000; stroke-linecap:round; stroke-linejoin:round; stroke-width:2; stroke-opacity:0.1; fill:none" points="1799.04,1423.18 1799.04,47.2441 "/>
<polyline clip-path="url(#clip672)" style="stroke:#000000; stroke-linecap:round; stroke-linejoin:round; stroke-width:2; stroke-opacity:0.1; fill:none" points="2293.43,1423.18 2293.43,47.2441 "/>
<polyline clip-path="url(#clip672)" style="stroke:#000000; stroke-linecap:round; stroke-linejoin:round; stroke-width:2; stroke-opacity:0.1; fill:none" points="256.556,1272.91 2352.76,1272.91 "/>
<polyline clip-path="url(#clip672)" style="stroke:#000000; stroke-linecap:round; stroke-linejoin:round; stroke-width:2; stroke-opacity:0.1; fill:none" points="256.556,1093.67 2352.76,1093.67 "/>
<polyline clip-path="url(#clip672)" style="stroke:#000000; stroke-linecap:round; stroke-linejoin:round; stroke-width:2; stroke-opacity:0.1; fill:none" points="256.556,914.443 2352.76,914.443 "/>
<polyline clip-path="url(#clip672)" style="stroke:#000000; stroke-linecap:round; stroke-linejoin:round; stroke-width:2; stroke-opacity:0.1; fill:none" points="256.556,735.212 2352.76,735.212 "/>
<polyline clip-path="url(#clip672)" style="stroke:#000000; stroke-linecap:round; stroke-linejoin:round; stroke-width:2; stroke-opacity:0.1; fill:none" points="256.556,555.981 2352.76,555.981 "/>
<polyline clip-path="url(#clip672)" style="stroke:#000000; stroke-linecap:round; stroke-linejoin:round; stroke-width:2; stroke-opacity:0.1; fill:none" points="256.556,376.749 2352.76,376.749 "/>
<polyline clip-path="url(#clip672)" style="stroke:#000000; stroke-linecap:round; stroke-linejoin:round; stroke-width:2; stroke-opacity:0.1; fill:none" points="256.556,197.518 2352.76,197.518 "/>
<polyline clip-path="url(#clip670)" style="stroke:#000000; stroke-linecap:round; stroke-linejoin:round; stroke-width:4; stroke-opacity:1; fill:none" points="256.556,1423.18 2352.76,1423.18 "/>
<polyline clip-path="url(#clip670)" style="stroke:#000000; stroke-linecap:round; stroke-linejoin:round; stroke-width:4; stroke-opacity:1; fill:none" points="315.882,1423.18 315.882,1404.28 "/>
<polyline clip-path="url(#clip670)" style="stroke:#000000; stroke-linecap:round; stroke-linejoin:round; stroke-width:4; stroke-opacity:1; fill:none" points="810.269,1423.18 810.269,1404.28 "/>
<polyline clip-path="url(#clip670)" style="stroke:#000000; stroke-linecap:round; stroke-linejoin:round; stroke-width:4; stroke-opacity:1; fill:none" points="1304.66,1423.18 1304.66,1404.28 "/>
<polyline clip-path="url(#clip670)" style="stroke:#000000; stroke-linecap:round; stroke-linejoin:round; stroke-width:4; stroke-opacity:1; fill:none" points="1799.04,1423.18 1799.04,1404.28 "/>
<polyline clip-path="url(#clip670)" style="stroke:#000000; stroke-linecap:round; stroke-linejoin:round; stroke-width:4; stroke-opacity:1; fill:none" points="2293.43,1423.18 2293.43,1404.28 "/>
<path clip-path="url(#clip670)" d="M262.41 1468.75 L292.086 1468.75 L292.086 1472.69 L262.41 1472.69 L262.41 1468.75 Z" fill="#000000" fill-rule="nonzero" fill-opacity="1" /><path clip-path="url(#clip670)" d="M302.989 1481.64 L310.628 1481.64 L310.628 1455.28 L302.318 1456.95 L302.318 1452.69 L310.581 1451.02 L315.257 1451.02 L315.257 1481.64 L322.896 1481.64 L322.896 1485.58 L302.989 1485.58 L302.989 1481.64 Z" fill="#000000" fill-rule="nonzero" fill-opacity="1" /><path clip-path="url(#clip670)" d="M332.341 1479.7 L337.225 1479.7 L337.225 1485.58 L332.341 1485.58 L332.341 1479.7 Z" fill="#000000" fill-rule="nonzero" fill-opacity="1" /><path clip-path="url(#clip670)" d="M357.41 1454.1 Q353.799 1454.1 351.97 1457.66 Q350.165 1461.2 350.165 1468.33 Q350.165 1475.44 351.97 1479.01 Q353.799 1482.55 357.41 1482.55 Q361.044 1482.55 362.85 1479.01 Q364.678 1475.44 364.678 1468.33 Q364.678 1461.2 362.85 1457.66 Q361.044 1454.1 357.41 1454.1 M357.41 1450.39 Q363.22 1450.39 366.276 1455 Q369.354 1459.58 369.354 1468.33 Q369.354 1477.06 366.276 1481.67 Q363.22 1486.25 357.41 1486.25 Q351.6 1486.25 348.521 1481.67 Q345.465 1477.06 345.465 1468.33 Q345.465 1459.58 348.521 1455 Q351.6 1450.39 357.41 1450.39 Z" fill="#000000" fill-rule="nonzero" fill-opacity="1" /><path clip-path="url(#clip670)" d="M757.295 1468.75 L786.971 1468.75 L786.971 1472.69 L757.295 1472.69 L757.295 1468.75 Z" fill="#000000" fill-rule="nonzero" fill-opacity="1" /><path clip-path="url(#clip670)" d="M807.063 1454.1 Q803.452 1454.1 801.623 1457.66 Q799.818 1461.2 799.818 1468.33 Q799.818 1475.44 801.623 1479.01 Q803.452 1482.55 807.063 1482.55 Q810.697 1482.55 812.503 1479.01 Q814.332 1475.44 814.332 1468.33 Q814.332 1461.2 812.503 1457.66 Q810.697 1454.1 807.063 1454.1 M807.063 1450.39 Q812.873 1450.39 815.929 1455 Q819.007 1459.58 819.007 1468.33 Q819.007 1477.06 815.929 1481.67 Q812.873 1486.25 807.063 1486.25 Q801.253 1486.25 798.174 1481.67 Q795.119 1477.06 795.119 1468.33 Q795.119 1459.58 798.174 1455 Q801.253 1450.39 807.063 1450.39 Z" fill="#000000" fill-rule="nonzero" fill-opacity="1" /><path clip-path="url(#clip670)" d="M827.225 1479.7 L832.109 1479.7 L832.109 1485.58 L827.225 1485.58 L827.225 1479.7 Z" fill="#000000" fill-rule="nonzero" fill-opacity="1" /><path clip-path="url(#clip670)" d="M842.341 1451.02 L860.697 1451.02 L860.697 1454.96 L846.623 1454.96 L846.623 1463.43 Q847.642 1463.08 848.66 1462.92 Q849.679 1462.73 850.697 1462.73 Q856.484 1462.73 859.864 1465.9 Q863.243 1469.08 863.243 1474.49 Q863.243 1480.07 859.771 1483.17 Q856.299 1486.25 849.98 1486.25 Q847.804 1486.25 845.535 1485.88 Q843.29 1485.51 840.882 1484.77 L840.882 1480.07 Q842.966 1481.2 845.188 1481.76 Q847.41 1482.32 849.887 1482.32 Q853.892 1482.32 856.229 1480.21 Q858.567 1478.1 858.567 1474.49 Q858.567 1470.88 856.229 1468.77 Q853.892 1466.67 849.887 1466.67 Q848.012 1466.67 846.137 1467.08 Q844.285 1467.5 842.341 1468.38 L842.341 1451.02 Z" fill="#000000" fill-rule="nonzero" fill-opacity="1" /><path clip-path="url(#clip670)" d="M1282.04 1454.1 Q1278.43 1454.1 1276.6 1457.66 Q1274.79 1461.2 1274.79 1468.33 Q1274.79 1475.44 1276.6 1479.01 Q1278.43 1482.55 1282.04 1482.55 Q1285.67 1482.55 1287.48 1479.01 Q1289.31 1475.44 1289.31 1468.33 Q1289.31 1461.2 1287.48 1457.66 Q1285.67 1454.1 1282.04 1454.1 M1282.04 1450.39 Q1287.85 1450.39 1290.91 1455 Q1293.98 1459.58 1293.98 1468.33 Q1293.98 1477.06 1290.91 1481.67 Q1287.85 1486.25 1282.04 1486.25 Q1276.23 1486.25 1273.15 1481.67 Q1270.1 1477.06 1270.1 1468.33 Q1270.1 1459.58 1273.15 1455 Q1276.23 1450.39 1282.04 1450.39 Z" fill="#000000" fill-rule="nonzero" fill-opacity="1" /><path clip-path="url(#clip670)" d="M1302.2 1479.7 L1307.09 1479.7 L1307.09 1485.58 L1302.2 1485.58 L1302.2 1479.7 Z" fill="#000000" fill-rule="nonzero" fill-opacity="1" /><path clip-path="url(#clip670)" d="M1327.27 1454.1 Q1323.66 1454.1 1321.83 1457.66 Q1320.03 1461.2 1320.03 1468.33 Q1320.03 1475.44 1321.83 1479.01 Q1323.66 1482.55 1327.27 1482.55 Q1330.91 1482.55 1332.71 1479.01 Q1334.54 1475.44 1334.54 1468.33 Q1334.54 1461.2 1332.71 1457.66 Q1330.91 1454.1 1327.27 1454.1 M1327.27 1450.39 Q1333.08 1450.39 1336.14 1455 Q1339.22 1459.58 1339.22 1468.33 Q1339.22 1477.06 1336.14 1481.67 Q1333.08 1486.25 1327.27 1486.25 Q1321.46 1486.25 1318.38 1481.67 Q1315.33 1477.06 1315.33 1468.33 Q1315.33 1459.58 1318.38 1455 Q1321.46 1450.39 1327.27 1450.39 Z" fill="#000000" fill-rule="nonzero" fill-opacity="1" /><path clip-path="url(#clip670)" d="M1776.92 1454.1 Q1773.31 1454.1 1771.48 1457.66 Q1769.68 1461.2 1769.68 1468.33 Q1769.68 1475.44 1771.48 1479.01 Q1773.31 1482.55 1776.92 1482.55 Q1780.56 1482.55 1782.36 1479.01 Q1784.19 1475.44 1784.19 1468.33 Q1784.19 1461.2 1782.36 1457.66 Q1780.56 1454.1 1776.92 1454.1 M1776.92 1450.39 Q1782.73 1450.39 1785.79 1455 Q1788.87 1459.58 1788.87 1468.33 Q1788.87 1477.06 1785.79 1481.67 Q1782.73 1486.25 1776.92 1486.25 Q1771.11 1486.25 1768.04 1481.67 Q1764.98 1477.06 1764.98 1468.33 Q1764.98 1459.58 1768.04 1455 Q1771.11 1450.39 1776.92 1450.39 Z" fill="#000000" fill-rule="nonzero" fill-opacity="1" /><path clip-path="url(#clip670)" d="M1797.09 1479.7 L1801.97 1479.7 L1801.97 1485.58 L1797.09 1485.58 L1797.09 1479.7 Z" fill="#000000" fill-rule="nonzero" fill-opacity="1" /><path clip-path="url(#clip670)" d="M1812.2 1451.02 L1830.56 1451.02 L1830.56 1454.96 L1816.48 1454.96 L1816.48 1463.43 Q1817.5 1463.08 1818.52 1462.92 Q1819.54 1462.73 1820.56 1462.73 Q1826.35 1462.73 1829.73 1465.9 Q1833.11 1469.08 1833.11 1474.49 Q1833.11 1480.07 1829.63 1483.17 Q1826.16 1486.25 1819.84 1486.25 Q1817.67 1486.25 1815.4 1485.88 Q1813.15 1485.51 1810.74 1484.77 L1810.74 1480.07 Q1812.83 1481.2 1815.05 1481.76 Q1817.27 1482.32 1819.75 1482.32 Q1823.75 1482.32 1826.09 1480.21 Q1828.43 1478.1 1828.43 1474.49 Q1828.43 1470.88 1826.09 1468.77 Q1823.75 1466.67 1819.75 1466.67 Q1817.87 1466.67 1816 1467.08 Q1814.15 1467.5 1812.2 1468.38 L1812.2 1451.02 Z" fill="#000000" fill-rule="nonzero" fill-opacity="1" /><path clip-path="url(#clip670)" d="M2260.58 1481.64 L2268.22 1481.64 L2268.22 1455.28 L2259.91 1456.95 L2259.91 1452.69 L2268.17 1451.02 L2272.85 1451.02 L2272.85 1481.64 L2280.49 1481.64 L2280.49 1485.58 L2260.58 1485.58 L2260.58 1481.64 Z" fill="#000000" fill-rule="nonzero" fill-opacity="1" /><path clip-path="url(#clip670)" d="M2289.93 1479.7 L2294.82 1479.7 L2294.82 1485.58 L2289.93 1485.58 L2289.93 1479.7 Z" fill="#000000" fill-rule="nonzero" fill-opacity="1" /><path clip-path="url(#clip670)" d="M2315 1454.1 Q2311.39 1454.1 2309.56 1457.66 Q2307.76 1461.2 2307.76 1468.33 Q2307.76 1475.44 2309.56 1479.01 Q2311.39 1482.55 2315 1482.55 Q2318.64 1482.55 2320.44 1479.01 Q2322.27 1475.44 2322.27 1468.33 Q2322.27 1461.2 2320.44 1457.66 Q2318.64 1454.1 2315 1454.1 M2315 1450.39 Q2320.81 1450.39 2323.87 1455 Q2326.95 1459.58 2326.95 1468.33 Q2326.95 1477.06 2323.87 1481.67 Q2320.81 1486.25 2315 1486.25 Q2309.19 1486.25 2306.11 1481.67 Q2303.06 1477.06 2303.06 1468.33 Q2303.06 1459.58 2306.11 1455 Q2309.19 1450.39 2315 1450.39 Z" fill="#000000" fill-rule="nonzero" fill-opacity="1" /><path clip-path="url(#clip670)" d="M1113.38 1532.4 L1100.49 1549.74 L1114.05 1568.04 L1107.14 1568.04 L1096.77 1554.04 L1086.39 1568.04 L1079.48 1568.04 L1093.33 1549.39 L1080.66 1532.4 L1087.57 1532.4 L1097.02 1545.1 L1106.48 1532.4 L1113.38 1532.4 Z" fill="#000000" fill-rule="nonzero" fill-opacity="1" /><path clip-path="url(#clip670)" d="M1157.11 1518.58 Q1152.85 1525.9 1150.78 1533.06 Q1148.71 1540.23 1148.71 1547.58 Q1148.71 1554.93 1150.78 1562.16 Q1152.88 1569.35 1157.11 1576.64 L1152.02 1576.64 Q1147.25 1569.16 1144.86 1561.93 Q1142.51 1554.71 1142.51 1547.58 Q1142.51 1540.48 1144.86 1533.29 Q1147.22 1526.09 1152.02 1518.58 L1157.11 1518.58 Z" fill="#000000" fill-rule="nonzero" fill-opacity="1" /><path clip-path="url(#clip670)" d="M1194.13 1533.76 L1194.13 1539.24 Q1191.65 1537.87 1189.13 1537.2 Q1186.65 1536.5 1184.11 1536.5 Q1178.41 1536.5 1175.26 1540.13 Q1172.11 1543.73 1172.11 1550.25 Q1172.11 1556.78 1175.26 1560.4 Q1178.41 1564 1184.11 1564 Q1186.65 1564 1189.13 1563.33 Q1191.65 1562.63 1194.13 1561.26 L1194.13 1566.68 Q1191.68 1567.82 1189.04 1568.39 Q1186.43 1568.97 1183.47 1568.97 Q1175.42 1568.97 1170.67 1563.91 Q1165.93 1558.85 1165.93 1550.25 Q1165.93 1541.53 1170.71 1536.53 Q1175.51 1531.54 1183.85 1531.54 Q1186.56 1531.54 1189.13 1532.11 Q1191.71 1532.65 1194.13 1533.76 Z" fill="#000000" fill-rule="nonzero" fill-opacity="1" /><path clip-path="url(#clip670)" d="M1218.13 1536.5 Q1213.42 1536.5 1210.68 1540.19 Q1207.94 1543.85 1207.94 1550.25 Q1207.94 1556.65 1210.65 1560.34 Q1213.39 1564 1218.13 1564 Q1222.81 1564 1225.55 1560.31 Q1228.28 1556.62 1228.28 1550.25 Q1228.28 1543.92 1225.55 1540.23 Q1222.81 1536.5 1218.13 1536.5 M1218.13 1531.54 Q1225.77 1531.54 1230.13 1536.5 Q1234.49 1541.47 1234.49 1550.25 Q1234.49 1559 1230.13 1564 Q1225.77 1568.97 1218.13 1568.97 Q1210.46 1568.97 1206.1 1564 Q1201.77 1559 1201.77 1550.25 Q1201.77 1541.47 1206.1 1536.5 Q1210.46 1531.54 1218.13 1531.54 Z" fill="#000000" fill-rule="nonzero" fill-opacity="1" /><path clip-path="url(#clip670)" d="M1258.01 1536.5 Q1253.3 1536.5 1250.56 1540.19 Q1247.83 1543.85 1247.83 1550.25 Q1247.83 1556.65 1250.53 1560.34 Q1253.27 1564 1258.01 1564 Q1262.69 1564 1265.43 1560.31 Q1268.16 1556.62 1268.16 1550.25 Q1268.16 1543.92 1265.43 1540.23 Q1262.69 1536.5 1258.01 1536.5 M1258.01 1531.54 Q1265.65 1531.54 1270.01 1536.5 Q1274.37 1541.47 1274.37 1550.25 Q1274.37 1559 1270.01 1564 Q1265.65 1568.97 1258.01 1568.97 Q1250.34 1568.97 1245.98 1564 Q1241.65 1559 1241.65 1550.25 Q1241.65 1541.47 1245.98 1536.5 Q1250.34 1531.54 1258.01 1531.54 Z" fill="#000000" fill-rule="nonzero" fill-opacity="1" /><path clip-path="url(#clip670)" d="M1304.74 1537.87 Q1303.75 1537.3 1302.57 1537.04 Q1301.43 1536.76 1300.02 1536.76 Q1295.06 1536.76 1292.39 1540 Q1289.74 1543.22 1289.74 1549.27 L1289.74 1568.04 L1283.86 1568.04 L1283.86 1532.4 L1289.74 1532.4 L1289.74 1537.93 Q1291.59 1534.69 1294.55 1533.13 Q1297.51 1531.54 1301.74 1531.54 Q1302.35 1531.54 1303.08 1531.63 Q1303.81 1531.7 1304.7 1531.85 L1304.74 1537.87 Z" fill="#000000" fill-rule="nonzero" fill-opacity="1" /><path clip-path="url(#clip670)" d="M1333.19 1537.81 L1333.19 1518.52 L1339.05 1518.52 L1339.05 1568.04 L1333.19 1568.04 L1333.19 1562.7 Q1331.34 1565.88 1328.51 1567.44 Q1325.71 1568.97 1321.76 1568.97 Q1315.3 1568.97 1311.23 1563.81 Q1307.19 1558.65 1307.19 1550.25 Q1307.19 1541.85 1311.23 1536.69 Q1315.3 1531.54 1321.76 1531.54 Q1325.71 1531.54 1328.51 1533.1 Q1331.34 1534.62 1333.19 1537.81 M1313.23 1550.25 Q1313.23 1556.71 1315.88 1560.4 Q1318.55 1564.07 1323.2 1564.07 Q1327.84 1564.07 1330.52 1560.4 Q1333.19 1556.71 1333.19 1550.25 Q1333.19 1543.79 1330.52 1540.13 Q1327.84 1536.44 1323.2 1536.44 Q1318.55 1536.44 1315.88 1540.13 Q1313.23 1543.79 1313.23 1550.25 Z" fill="#000000" fill-rule="nonzero" fill-opacity="1" /><path clip-path="url(#clip670)" d="M1351.11 1532.4 L1356.97 1532.4 L1356.97 1568.04 L1351.11 1568.04 L1351.11 1532.4 M1351.11 1518.52 L1356.97 1518.52 L1356.97 1525.93 L1351.11 1525.93 L1351.11 1518.52 Z" fill="#000000" fill-rule="nonzero" fill-opacity="1" /><path clip-path="url(#clip670)" d="M1398.85 1546.53 L1398.85 1568.04 L1393 1568.04 L1393 1546.72 Q1393 1541.66 1391.02 1539.14 Q1389.05 1536.63 1385.1 1536.63 Q1380.36 1536.63 1377.62 1539.65 Q1374.89 1542.68 1374.89 1547.9 L1374.89 1568.04 L1369 1568.04 L1369 1532.4 L1374.89 1532.4 L1374.89 1537.93 Q1376.99 1534.72 1379.82 1533.13 Q1382.68 1531.54 1386.41 1531.54 Q1392.55 1531.54 1395.7 1535.36 Q1398.85 1539.14 1398.85 1546.53 Z" fill="#000000" fill-rule="nonzero" fill-opacity="1" /><path clip-path="url(#clip670)" d="M1426.73 1550.12 Q1419.64 1550.12 1416.9 1551.75 Q1414.16 1553.37 1414.16 1557.29 Q1414.16 1560.4 1416.2 1562.25 Q1418.27 1564.07 1421.8 1564.07 Q1426.67 1564.07 1429.6 1560.63 Q1432.56 1557.16 1432.56 1551.43 L1432.56 1550.12 L1426.73 1550.12 M1438.42 1547.71 L1438.42 1568.04 L1432.56 1568.04 L1432.56 1562.63 Q1430.55 1565.88 1427.56 1567.44 Q1424.57 1568.97 1420.24 1568.97 Q1414.77 1568.97 1411.52 1565.91 Q1408.31 1562.82 1408.31 1557.67 Q1408.31 1551.65 1412.32 1548.6 Q1416.36 1545.54 1424.35 1545.54 L1432.56 1545.54 L1432.56 1544.97 Q1432.56 1540.93 1429.89 1538.73 Q1427.24 1536.5 1422.44 1536.5 Q1419.38 1536.5 1416.49 1537.23 Q1413.59 1537.97 1410.92 1539.43 L1410.92 1534.02 Q1414.13 1532.78 1417.15 1532.17 Q1420.18 1531.54 1423.04 1531.54 Q1430.78 1531.54 1434.6 1535.55 Q1438.42 1539.56 1438.42 1547.71 Z" fill="#000000" fill-rule="nonzero" fill-opacity="1" /><path clip-path="url(#clip670)" d="M1456.27 1522.27 L1456.27 1532.4 L1468.33 1532.4 L1468.33 1536.95 L1456.27 1536.95 L1456.27 1556.3 Q1456.27 1560.66 1457.45 1561.9 Q1458.66 1563.14 1462.32 1563.14 L1468.33 1563.14 L1468.33 1568.04 L1462.32 1568.04 Q1455.54 1568.04 1452.96 1565.53 Q1450.38 1562.98 1450.38 1556.3 L1450.38 1536.95 L1446.09 1536.95 L1446.09 1532.4 L1450.38 1532.4 L1450.38 1522.27 L1456.27 1522.27 Z" fill="#000000" fill-rule="nonzero" fill-opacity="1" /><path clip-path="url(#clip670)" d="M1506.53 1548.76 L1506.53 1551.62 L1479.6 1551.62 Q1479.98 1557.67 1483.23 1560.85 Q1486.51 1564 1492.33 1564 Q1495.71 1564 1498.86 1563.17 Q1502.04 1562.35 1505.16 1560.69 L1505.16 1566.23 Q1502.01 1567.57 1498.7 1568.27 Q1495.39 1568.97 1491.98 1568.97 Q1483.45 1568.97 1478.46 1564 Q1473.49 1559.04 1473.49 1550.57 Q1473.49 1541.82 1478.2 1536.69 Q1482.94 1531.54 1490.96 1531.54 Q1498.16 1531.54 1502.33 1536.18 Q1506.53 1540.8 1506.53 1548.76 M1500.67 1547.04 Q1500.61 1542.23 1497.97 1539.37 Q1495.36 1536.5 1491.03 1536.5 Q1486.13 1536.5 1483.17 1539.27 Q1480.24 1542.04 1479.79 1547.07 L1500.67 1547.04 Z" fill="#000000" fill-rule="nonzero" fill-opacity="1" /><path clip-path="url(#clip670)" d="M1515.22 1518.58 L1520.31 1518.58 Q1525.08 1526.09 1527.44 1533.29 Q1529.83 1540.48 1529.83 1547.58 Q1529.83 1554.71 1527.44 1561.93 Q1525.08 1569.16 1520.31 1576.64 L1515.22 1576.64 Q1519.45 1569.35 1521.52 1562.16 Q1523.62 1554.93 1523.62 1547.58 Q1523.62 1540.23 1521.52 1533.06 Q1519.45 1525.9 1515.22 1518.58 Z" fill="#000000" fill-rule="nonzero" fill-opacity="1" /><polyline clip-path="url(#clip670)" style="stroke:#000000; stroke-linecap:round; stroke-linejoin:round; stroke-width:4; stroke-opacity:1; fill:none" points="256.556,1423.18 256.556,47.2441 "/>
<polyline clip-path="url(#clip670)" style="stroke:#000000; stroke-linecap:round; stroke-linejoin:round; stroke-width:4; stroke-opacity:1; fill:none" points="256.556,1272.91 275.454,1272.91 "/>
<polyline clip-path="url(#clip670)" style="stroke:#000000; stroke-linecap:round; stroke-linejoin:round; stroke-width:4; stroke-opacity:1; fill:none" points="256.556,1093.67 275.454,1093.67 "/>
<polyline clip-path="url(#clip670)" style="stroke:#000000; stroke-linecap:round; stroke-linejoin:round; stroke-width:4; stroke-opacity:1; fill:none" points="256.556,914.443 275.454,914.443 "/>
<polyline clip-path="url(#clip670)" style="stroke:#000000; stroke-linecap:round; stroke-linejoin:round; stroke-width:4; stroke-opacity:1; fill:none" points="256.556,735.212 275.454,735.212 "/>
<polyline clip-path="url(#clip670)" style="stroke:#000000; stroke-linecap:round; stroke-linejoin:round; stroke-width:4; stroke-opacity:1; fill:none" points="256.556,555.981 275.454,555.981 "/>
<polyline clip-path="url(#clip670)" style="stroke:#000000; stroke-linecap:round; stroke-linejoin:round; stroke-width:4; stroke-opacity:1; fill:none" points="256.556,376.749 275.454,376.749 "/>
<polyline clip-path="url(#clip670)" style="stroke:#000000; stroke-linecap:round; stroke-linejoin:round; stroke-width:4; stroke-opacity:1; fill:none" points="256.556,197.518 275.454,197.518 "/>
<path clip-path="url(#clip670)" d="M114.26 1273.36 L143.936 1273.36 L143.936 1277.29 L114.26 1277.29 L114.26 1273.36 Z" fill="#000000" fill-rule="nonzero" fill-opacity="1" /><path clip-path="url(#clip670)" d="M164.028 1258.7 Q160.417 1258.7 158.589 1262.27 Q156.783 1265.81 156.783 1272.94 Q156.783 1280.05 158.589 1283.61 Q160.417 1287.15 164.028 1287.15 Q167.663 1287.15 169.468 1283.61 Q171.297 1280.05 171.297 1272.94 Q171.297 1265.81 169.468 1262.27 Q167.663 1258.7 164.028 1258.7 M164.028 1255 Q169.839 1255 172.894 1259.61 Q175.973 1264.19 175.973 1272.94 Q175.973 1281.67 172.894 1286.27 Q169.839 1290.86 164.028 1290.86 Q158.218 1290.86 155.14 1286.27 Q152.084 1281.67 152.084 1272.94 Q152.084 1264.19 155.14 1259.61 Q158.218 1255 164.028 1255 Z" fill="#000000" fill-rule="nonzero" fill-opacity="1" /><path clip-path="url(#clip670)" d="M184.19 1284.31 L189.075 1284.31 L189.075 1290.19 L184.19 1290.19 L184.19 1284.31 Z" fill="#000000" fill-rule="nonzero" fill-opacity="1" /><path clip-path="url(#clip670)" d="M213.426 1271.55 Q216.783 1272.27 218.658 1274.54 Q220.556 1276.81 220.556 1280.14 Q220.556 1285.26 217.037 1288.06 Q213.519 1290.86 207.037 1290.86 Q204.862 1290.86 202.547 1290.42 Q200.255 1290 197.801 1289.14 L197.801 1284.63 Q199.746 1285.76 202.061 1286.34 Q204.375 1286.92 206.899 1286.92 Q211.297 1286.92 213.588 1285.19 Q215.903 1283.45 215.903 1280.14 Q215.903 1277.08 213.75 1275.37 Q211.621 1273.64 207.801 1273.64 L203.774 1273.64 L203.774 1269.79 L207.987 1269.79 Q211.436 1269.79 213.264 1268.43 Q215.093 1267.04 215.093 1264.45 Q215.093 1261.78 213.195 1260.37 Q211.32 1258.94 207.801 1258.94 Q205.88 1258.94 203.681 1259.35 Q201.482 1259.77 198.843 1260.65 L198.843 1256.48 Q201.505 1255.74 203.82 1255.37 Q206.158 1255 208.218 1255 Q213.542 1255 216.644 1257.43 Q219.746 1259.84 219.746 1263.96 Q219.746 1266.83 218.102 1268.82 Q216.459 1270.79 213.426 1271.55 Z" fill="#000000" fill-rule="nonzero" fill-opacity="1" /><path clip-path="url(#clip670)" d="M115.209 1094.13 L144.885 1094.13 L144.885 1098.06 L115.209 1098.06 L115.209 1094.13 Z" fill="#000000" fill-rule="nonzero" fill-opacity="1" /><path clip-path="url(#clip670)" d="M164.977 1079.47 Q161.366 1079.47 159.538 1083.04 Q157.732 1086.58 157.732 1093.71 Q157.732 1100.82 159.538 1104.38 Q161.366 1107.92 164.977 1107.92 Q168.612 1107.92 170.417 1104.38 Q172.246 1100.82 172.246 1093.71 Q172.246 1086.58 170.417 1083.04 Q168.612 1079.47 164.977 1079.47 M164.977 1075.77 Q170.788 1075.77 173.843 1080.38 Q176.922 1084.96 176.922 1093.71 Q176.922 1102.44 173.843 1107.04 Q170.788 1111.63 164.977 1111.63 Q159.167 1111.63 156.089 1107.04 Q153.033 1102.44 153.033 1093.71 Q153.033 1084.96 156.089 1080.38 Q159.167 1075.77 164.977 1075.77 Z" fill="#000000" fill-rule="nonzero" fill-opacity="1" /><path clip-path="url(#clip670)" d="M185.139 1105.07 L190.024 1105.07 L190.024 1110.95 L185.139 1110.95 L185.139 1105.07 Z" fill="#000000" fill-rule="nonzero" fill-opacity="1" /><path clip-path="url(#clip670)" d="M204.237 1107.02 L220.556 1107.02 L220.556 1110.95 L198.612 1110.95 L198.612 1107.02 Q201.274 1104.26 205.857 1099.64 Q210.463 1094.98 211.644 1093.64 Q213.889 1091.12 214.769 1089.38 Q215.672 1087.62 215.672 1085.93 Q215.672 1083.18 213.727 1081.44 Q211.806 1079.7 208.704 1079.7 Q206.505 1079.7 204.051 1080.47 Q201.621 1081.23 198.843 1082.78 L198.843 1078.06 Q201.667 1076.93 204.121 1076.35 Q206.574 1075.77 208.612 1075.77 Q213.982 1075.77 217.176 1078.45 Q220.371 1081.14 220.371 1085.63 Q220.371 1087.76 219.561 1089.68 Q218.773 1091.58 216.667 1094.17 Q216.088 1094.84 212.986 1098.06 Q209.885 1101.26 204.237 1107.02 Z" fill="#000000" fill-rule="nonzero" fill-opacity="1" /><path clip-path="url(#clip670)" d="M114.839 914.895 L144.515 914.895 L144.515 918.83 L114.839 918.83 L114.839 914.895 Z" fill="#000000" fill-rule="nonzero" fill-opacity="1" /><path clip-path="url(#clip670)" d="M164.607 900.242 Q160.996 900.242 159.167 903.807 Q157.362 907.348 157.362 914.478 Q157.362 921.584 159.167 925.149 Q160.996 928.691 164.607 928.691 Q168.241 928.691 170.047 925.149 Q171.876 921.584 171.876 914.478 Q171.876 907.348 170.047 903.807 Q168.241 900.242 164.607 900.242 M164.607 896.538 Q170.417 896.538 173.473 901.145 Q176.551 905.728 176.551 914.478 Q176.551 923.205 173.473 927.811 Q170.417 932.395 164.607 932.395 Q158.797 932.395 155.718 927.811 Q152.663 923.205 152.663 914.478 Q152.663 905.728 155.718 901.145 Q158.797 896.538 164.607 896.538 Z" fill="#000000" fill-rule="nonzero" fill-opacity="1" /><path clip-path="url(#clip670)" d="M184.769 925.844 L189.653 925.844 L189.653 931.723 L184.769 931.723 L184.769 925.844 Z" fill="#000000" fill-rule="nonzero" fill-opacity="1" /><path clip-path="url(#clip670)" d="M200.649 927.788 L208.287 927.788 L208.287 901.422 L199.977 903.089 L199.977 898.83 L208.241 897.163 L212.917 897.163 L212.917 927.788 L220.556 927.788 L220.556 931.723 L200.649 931.723 L200.649 927.788 Z" fill="#000000" fill-rule="nonzero" fill-opacity="1" /><path clip-path="url(#clip670)" d="M163.38 721.011 Q159.769 721.011 157.94 724.575 Q156.135 728.117 156.135 735.247 Q156.135 742.353 157.94 745.918 Q159.769 749.46 163.38 749.46 Q167.015 749.46 168.82 745.918 Q170.649 742.353 170.649 735.247 Q170.649 728.117 168.82 724.575 Q167.015 721.011 163.38 721.011 M163.38 717.307 Q169.19 717.307 172.246 721.913 Q175.325 726.497 175.325 735.247 Q175.325 743.973 172.246 748.58 Q169.19 753.163 163.38 753.163 Q157.57 753.163 154.491 748.58 Q151.436 743.973 151.436 735.247 Q151.436 726.497 154.491 721.913 Q157.57 717.307 163.38 717.307 Z" fill="#000000" fill-rule="nonzero" fill-opacity="1" /><path clip-path="url(#clip670)" d="M183.542 746.612 L188.426 746.612 L188.426 752.492 L183.542 752.492 L183.542 746.612 Z" fill="#000000" fill-rule="nonzero" fill-opacity="1" /><path clip-path="url(#clip670)" d="M208.612 721.011 Q205 721.011 203.172 724.575 Q201.366 728.117 201.366 735.247 Q201.366 742.353 203.172 745.918 Q205 749.46 208.612 749.46 Q212.246 749.46 214.051 745.918 Q215.88 742.353 215.88 735.247 Q215.88 728.117 214.051 724.575 Q212.246 721.011 208.612 721.011 M208.612 717.307 Q214.422 717.307 217.477 721.913 Q220.556 726.497 220.556 735.247 Q220.556 743.973 217.477 748.58 Q214.422 753.163 208.612 753.163 Q202.801 753.163 199.723 748.58 Q196.667 743.973 196.667 735.247 Q196.667 726.497 199.723 721.913 Q202.801 717.307 208.612 717.307 Z" fill="#000000" fill-rule="nonzero" fill-opacity="1" /><path clip-path="url(#clip670)" d="M164.607 541.779 Q160.996 541.779 159.167 545.344 Q157.362 548.886 157.362 556.015 Q157.362 563.122 159.167 566.687 Q160.996 570.228 164.607 570.228 Q168.241 570.228 170.047 566.687 Q171.876 563.122 171.876 556.015 Q171.876 548.886 170.047 545.344 Q168.241 541.779 164.607 541.779 M164.607 538.076 Q170.417 538.076 173.473 542.682 Q176.551 547.265 176.551 556.015 Q176.551 564.742 173.473 569.349 Q170.417 573.932 164.607 573.932 Q158.797 573.932 155.718 569.349 Q152.663 564.742 152.663 556.015 Q152.663 547.265 155.718 542.682 Q158.797 538.076 164.607 538.076 Z" fill="#000000" fill-rule="nonzero" fill-opacity="1" /><path clip-path="url(#clip670)" d="M184.769 567.381 L189.653 567.381 L189.653 573.261 L184.769 573.261 L184.769 567.381 Z" fill="#000000" fill-rule="nonzero" fill-opacity="1" /><path clip-path="url(#clip670)" d="M200.649 569.326 L208.287 569.326 L208.287 542.96 L199.977 544.627 L199.977 540.367 L208.241 538.701 L212.917 538.701 L212.917 569.326 L220.556 569.326 L220.556 573.261 L200.649 573.261 L200.649 569.326 Z" fill="#000000" fill-rule="nonzero" fill-opacity="1" /><path clip-path="url(#clip670)" d="M164.977 362.548 Q161.366 362.548 159.538 366.113 Q157.732 369.655 157.732 376.784 Q157.732 383.891 159.538 387.455 Q161.366 390.997 164.977 390.997 Q168.612 390.997 170.417 387.455 Q172.246 383.891 172.246 376.784 Q172.246 369.655 170.417 366.113 Q168.612 362.548 164.977 362.548 M164.977 358.844 Q170.788 358.844 173.843 363.451 Q176.922 368.034 176.922 376.784 Q176.922 385.511 173.843 390.117 Q170.788 394.701 164.977 394.701 Q159.167 394.701 156.089 390.117 Q153.033 385.511 153.033 376.784 Q153.033 368.034 156.089 363.451 Q159.167 358.844 164.977 358.844 Z" fill="#000000" fill-rule="nonzero" fill-opacity="1" /><path clip-path="url(#clip670)" d="M185.139 388.15 L190.024 388.15 L190.024 394.029 L185.139 394.029 L185.139 388.15 Z" fill="#000000" fill-rule="nonzero" fill-opacity="1" /><path clip-path="url(#clip670)" d="M204.237 390.094 L220.556 390.094 L220.556 394.029 L198.612 394.029 L198.612 390.094 Q201.274 387.34 205.857 382.71 Q210.463 378.057 211.644 376.715 Q213.889 374.192 214.769 372.455 Q215.672 370.696 215.672 369.006 Q215.672 366.252 213.727 364.516 Q211.806 362.78 208.704 362.78 Q206.505 362.78 204.051 363.543 Q201.621 364.307 198.843 365.858 L198.843 361.136 Q201.667 360.002 204.121 359.423 Q206.574 358.844 208.612 358.844 Q213.982 358.844 217.176 361.53 Q220.371 364.215 220.371 368.705 Q220.371 370.835 219.561 372.756 Q218.773 374.654 216.667 377.247 Q216.088 377.918 212.986 381.136 Q209.885 384.33 204.237 390.094 Z" fill="#000000" fill-rule="nonzero" fill-opacity="1" /><path clip-path="url(#clip670)" d="M164.028 183.317 Q160.417 183.317 158.589 186.882 Q156.783 190.423 156.783 197.553 Q156.783 204.659 158.589 208.224 Q160.417 211.766 164.028 211.766 Q167.663 211.766 169.468 208.224 Q171.297 204.659 171.297 197.553 Q171.297 190.423 169.468 186.882 Q167.663 183.317 164.028 183.317 M164.028 179.613 Q169.839 179.613 172.894 184.22 Q175.973 188.803 175.973 197.553 Q175.973 206.28 172.894 210.886 Q169.839 215.469 164.028 215.469 Q158.218 215.469 155.14 210.886 Q152.084 206.28 152.084 197.553 Q152.084 188.803 155.14 184.22 Q158.218 179.613 164.028 179.613 Z" fill="#000000" fill-rule="nonzero" fill-opacity="1" /><path clip-path="url(#clip670)" d="M184.19 208.918 L189.075 208.918 L189.075 214.798 L184.19 214.798 L184.19 208.918 Z" fill="#000000" fill-rule="nonzero" fill-opacity="1" /><path clip-path="url(#clip670)" d="M213.426 196.164 Q216.783 196.882 218.658 199.15 Q220.556 201.419 220.556 204.752 Q220.556 209.868 217.037 212.668 Q213.519 215.469 207.037 215.469 Q204.862 215.469 202.547 215.03 Q200.255 214.613 197.801 213.756 L197.801 209.243 Q199.746 210.377 202.061 210.956 Q204.375 211.534 206.899 211.534 Q211.297 211.534 213.588 209.798 Q215.903 208.062 215.903 204.752 Q215.903 201.696 213.75 199.983 Q211.621 198.247 207.801 198.247 L203.774 198.247 L203.774 194.405 L207.987 194.405 Q211.436 194.405 213.264 193.039 Q215.093 191.65 215.093 189.057 Q215.093 186.395 213.195 184.983 Q211.32 183.548 207.801 183.548 Q205.88 183.548 203.681 183.965 Q201.482 184.382 198.843 185.261 L198.843 181.095 Q201.505 180.354 203.82 179.983 Q206.158 179.613 208.218 179.613 Q213.542 179.613 216.644 182.044 Q219.746 184.451 219.746 188.571 Q219.746 191.442 218.102 193.432 Q216.459 195.4 213.426 196.164 Z" fill="#000000" fill-rule="nonzero" fill-opacity="1" /><path clip-path="url(#clip670)" d="M46.212 1101.42 Q52.6732 1101.42 56.3653 1098.77 Q60.0256 1096.1 60.0256 1091.45 Q60.0256 1086.81 56.3653 1084.13 Q52.6732 1081.46 46.212 1081.46 Q39.7508 1081.46 36.0905 1084.13 Q32.3984 1086.81 32.3984 1091.45 Q32.3984 1096.1 36.0905 1098.77 Q39.7508 1101.42 46.212 1101.42 M58.657 1081.46 Q61.8398 1083.3 63.3994 1086.14 Q64.9272 1088.94 64.9272 1092.89 Q64.9272 1099.35 59.771 1103.42 Q54.6147 1107.46 46.212 1107.46 Q37.8093 1107.46 32.6531 1103.42 Q27.4968 1099.35 27.4968 1092.89 Q27.4968 1088.94 29.0564 1086.14 Q30.5842 1083.3 33.7671 1081.46 L28.3562 1081.46 L28.3562 1075.6 L77.5631 1075.6 L77.5631 1081.46 L58.657 1081.46 Z" fill="#000000" fill-rule="nonzero" fill-opacity="1" /><path clip-path="url(#clip670)" d="M74.8259 1036.45 L79.3773 1036.45 L79.3773 1070.32 L74.8259 1070.32 L74.8259 1036.45 Z" fill="#000000" fill-rule="nonzero" fill-opacity="1" /><path clip-path="url(#clip670)" d="M28.3562 1001.31 L45.7028 1014.2 L64.0042 1000.65 L64.0042 1007.55 L49.9996 1017.93 L64.0042 1028.31 L64.0042 1035.21 L45.3526 1021.37 L28.3562 1034.03 L28.3562 1027.13 L41.0558 1017.67 L28.3562 1008.22 L28.3562 1001.31 Z" fill="#000000" fill-rule="nonzero" fill-opacity="1" /><path clip-path="url(#clip670)" d="M14.5426 957.582 Q21.8632 961.847 29.0246 963.916 Q36.186 965.985 43.5384 965.985 Q50.8908 965.985 58.1159 963.916 Q65.3091 961.815 72.5979 957.582 L72.5979 962.675 Q65.1182 967.449 57.8931 969.836 Q50.668 972.191 43.5384 972.191 Q36.4406 972.191 29.2474 969.836 Q22.0542 967.481 14.5426 962.675 L14.5426 957.582 Z" fill="#000000" fill-rule="nonzero" fill-opacity="1" /><path clip-path="url(#clip670)" d="M14.479 928.172 L19.3487 928.172 L19.3487 933.774 Q19.3487 936.925 20.6219 938.167 Q21.895 939.376 25.2052 939.376 L28.3562 939.376 L28.3562 929.732 L32.9077 929.732 L32.9077 939.376 L64.0042 939.376 L64.0042 945.264 L32.9077 945.264 L32.9077 950.866 L28.3562 950.866 L28.3562 945.264 L25.8736 945.264 Q19.9216 945.264 17.2162 942.495 Q14.479 939.726 14.479 933.711 L14.479 928.172 Z" fill="#000000" fill-rule="nonzero" fill-opacity="1" /><path clip-path="url(#clip670)" d="M14.479 923.271 L14.479 917.414 L64.0042 917.414 L64.0042 923.271 L14.479 923.271 Z" fill="#000000" fill-rule="nonzero" fill-opacity="1" /><path clip-path="url(#clip670)" d="M49.9359 905.765 L28.3562 905.765 L28.3562 899.909 L49.7131 899.909 Q54.7739 899.909 57.3202 897.935 Q59.8346 895.962 59.8346 892.015 Q59.8346 887.273 56.8109 884.536 Q53.7872 881.766 48.5673 881.766 L28.3562 881.766 L28.3562 875.91 L64.0042 875.91 L64.0042 881.766 L58.5296 881.766 Q61.7762 883.899 63.3676 886.732 Q64.9272 889.533 64.9272 893.257 Q64.9272 899.399 61.1078 902.582 Q57.2883 905.765 49.9359 905.765 M27.4968 891.029 L27.4968 891.029 Z" fill="#000000" fill-rule="nonzero" fill-opacity="1" /><path clip-path="url(#clip670)" d="M28.3562 834.215 L45.7028 847.105 L64.0042 833.546 L64.0042 840.453 L49.9996 850.829 L64.0042 861.205 L64.0042 868.112 L45.3526 854.267 L28.3562 866.934 L28.3562 860.028 L41.0558 850.574 L28.3562 841.121 L28.3562 834.215 Z" fill="#000000" fill-rule="nonzero" fill-opacity="1" /><path clip-path="url(#clip670)" d="M28.3562 804.55 L28.3562 798.694 L64.0042 798.694 L64.0042 804.55 L28.3562 804.55 M14.479 804.55 L14.479 798.694 L21.895 798.694 L21.895 804.55 L14.479 804.55 Z" fill="#000000" fill-rule="nonzero" fill-opacity="1" /><path clip-path="url(#clip670)" d="M42.4881 756.808 L64.0042 756.808 L64.0042 762.664 L42.679 762.664 Q37.6183 762.664 35.1038 764.637 Q32.5894 766.611 32.5894 770.558 Q32.5894 775.3 35.6131 778.037 Q38.6368 780.775 43.8567 780.775 L64.0042 780.775 L64.0042 786.663 L28.3562 786.663 L28.3562 780.775 L33.8944 780.775 Q30.6797 778.674 29.0883 775.841 Q27.4968 772.977 27.4968 769.253 Q27.4968 763.11 31.3163 759.959 Q35.1038 756.808 42.4881 756.808 Z" fill="#000000" fill-rule="nonzero" fill-opacity="1" /><path clip-path="url(#clip670)" d="M28.3562 694.774 L45.7028 707.664 L64.0042 694.105 L64.0042 701.012 L49.9996 711.388 L64.0042 721.764 L64.0042 728.671 L45.3526 714.826 L28.3562 727.494 L28.3562 720.587 L41.0558 711.134 L28.3562 701.681 L28.3562 694.774 Z" fill="#000000" fill-rule="nonzero" fill-opacity="1" /><path clip-path="url(#clip670)" d="M43.5384 688.79 L43.5384 671.634 L48.7583 671.634 L48.7583 688.79 L43.5384 688.79 Z" fill="#000000" fill-rule="nonzero" fill-opacity="1" /><path clip-path="url(#clip670)" d="M33.7671 638.851 L14.479 638.851 L14.479 632.995 L64.0042 632.995 L64.0042 638.851 L58.657 638.851 Q61.8398 640.697 63.3994 643.53 Q64.9272 646.331 64.9272 650.278 Q64.9272 656.739 59.771 660.813 Q54.6147 664.855 46.212 664.855 Q37.8093 664.855 32.6531 660.813 Q27.4968 656.739 27.4968 650.278 Q27.4968 646.331 29.0564 643.53 Q30.5842 640.697 33.7671 638.851 M46.212 658.808 Q52.6732 658.808 56.3653 656.166 Q60.0256 653.492 60.0256 648.845 Q60.0256 644.198 56.3653 641.525 Q52.6732 638.851 46.212 638.851 Q39.7508 638.851 36.0905 641.525 Q32.3984 644.198 32.3984 648.845 Q32.3984 653.492 36.0905 656.166 Q39.7508 658.808 46.212 658.808 Z" fill="#000000" fill-rule="nonzero" fill-opacity="1" /><path clip-path="url(#clip670)" d="M28.3562 620.932 L28.3562 615.075 L64.0042 615.075 L64.0042 620.932 L28.3562 620.932 M14.479 620.932 L14.479 615.075 L21.895 615.075 L21.895 620.932 L14.479 620.932 Z" fill="#000000" fill-rule="nonzero" fill-opacity="1" /><path clip-path="url(#clip670)" d="M33.8307 582.164 Q33.2578 583.151 33.0032 584.329 Q32.7167 585.475 32.7167 586.875 Q32.7167 591.84 35.9632 594.514 Q39.1779 597.156 45.2253 597.156 L64.0042 597.156 L64.0042 603.044 L28.3562 603.044 L28.3562 597.156 L33.8944 597.156 Q30.6479 595.31 29.0883 592.35 Q27.4968 589.39 27.4968 585.156 Q27.4968 584.552 27.5923 583.82 Q27.656 583.087 27.8151 582.196 L33.8307 582.164 Z" fill="#000000" fill-rule="nonzero" fill-opacity="1" /><path clip-path="url(#clip670)" d="M44.7161 546.962 L47.5806 546.962 L47.5806 573.889 Q53.6281 573.507 56.8109 570.261 Q59.9619 566.982 59.9619 561.158 Q59.9619 557.784 59.1344 554.633 Q58.3069 551.45 56.6518 548.331 L62.1899 548.331 Q63.5267 551.482 64.227 554.792 Q64.9272 558.102 64.9272 561.508 Q64.9272 570.038 59.9619 575.035 Q54.9967 580 46.5303 580 Q37.7774 580 32.6531 575.29 Q27.4968 570.547 27.4968 562.526 Q27.4968 555.333 32.1438 551.163 Q36.7589 546.962 44.7161 546.962 M42.9973 552.819 Q38.1912 552.882 35.3266 555.524 Q32.4621 558.134 32.4621 562.463 Q32.4621 567.364 35.2312 570.324 Q38.0002 573.252 43.0292 573.698 L42.9973 552.819 Z" fill="#000000" fill-rule="nonzero" fill-opacity="1" /><path clip-path="url(#clip670)" d="M29.7248 511.696 L35.1993 511.696 Q33.8307 514.179 33.1623 516.693 Q32.4621 519.176 32.4621 521.722 Q32.4621 527.419 36.0905 530.57 Q39.6872 533.721 46.212 533.721 Q52.7369 533.721 56.3653 530.57 Q59.9619 527.419 59.9619 521.722 Q59.9619 519.176 59.2935 516.693 Q58.5933 514.179 57.2247 511.696 L62.6355 511.696 Q63.7814 514.147 64.3543 516.789 Q64.9272 519.399 64.9272 522.359 Q64.9272 530.411 59.8664 535.154 Q54.8057 539.896 46.212 539.896 Q37.491 539.896 32.4939 535.122 Q27.4968 530.316 27.4968 521.977 Q27.4968 519.271 28.0697 516.693 Q28.6108 514.115 29.7248 511.696 Z" fill="#000000" fill-rule="nonzero" fill-opacity="1" /><path clip-path="url(#clip670)" d="M18.2347 495.718 L28.3562 495.718 L28.3562 483.655 L32.9077 483.655 L32.9077 495.718 L52.2594 495.718 Q56.6199 495.718 57.8613 494.541 Q59.1026 493.331 59.1026 489.671 L59.1026 483.655 L64.0042 483.655 L64.0042 489.671 Q64.0042 496.45 61.4897 499.028 Q58.9434 501.606 52.2594 501.606 L32.9077 501.606 L32.9077 505.903 L28.3562 505.903 L28.3562 501.606 L18.2347 501.606 L18.2347 495.718 Z" fill="#000000" fill-rule="nonzero" fill-opacity="1" /><path clip-path="url(#clip670)" d="M28.3562 475.953 L28.3562 470.096 L64.0042 470.096 L64.0042 475.953 L28.3562 475.953 M14.479 475.953 L14.479 470.096 L21.895 470.096 L21.895 475.953 L14.479 475.953 Z" fill="#000000" fill-rule="nonzero" fill-opacity="1" /><path clip-path="url(#clip670)" d="M32.4621 444.029 Q32.4621 448.739 36.1542 451.477 Q39.8145 454.214 46.212 454.214 Q52.6095 454.214 56.3017 451.508 Q59.9619 448.771 59.9619 444.029 Q59.9619 439.35 56.2698 436.613 Q52.5777 433.875 46.212 433.875 Q39.8781 433.875 36.186 436.613 Q32.4621 439.35 32.4621 444.029 M27.4968 444.029 Q27.4968 436.39 32.4621 432.029 Q37.4273 427.669 46.212 427.669 Q54.9649 427.669 59.9619 432.029 Q64.9272 436.39 64.9272 444.029 Q64.9272 451.699 59.9619 456.06 Q54.9649 460.388 46.212 460.388 Q37.4273 460.388 32.4621 456.06 Q27.4968 451.699 27.4968 444.029 Z" fill="#000000" fill-rule="nonzero" fill-opacity="1" /><path clip-path="url(#clip670)" d="M42.4881 388.329 L64.0042 388.329 L64.0042 394.185 L42.679 394.185 Q37.6183 394.185 35.1038 396.159 Q32.5894 398.132 32.5894 402.079 Q32.5894 406.821 35.6131 409.558 Q38.6368 412.296 43.8567 412.296 L64.0042 412.296 L64.0042 418.184 L28.3562 418.184 L28.3562 412.296 L33.8944 412.296 Q30.6797 410.195 29.0883 407.362 Q27.4968 404.498 27.4968 400.774 Q27.4968 394.631 31.3163 391.48 Q35.1038 388.329 42.4881 388.329 Z" fill="#000000" fill-rule="nonzero" fill-opacity="1" /><path clip-path="url(#clip670)" d="M14.5426 377.571 L14.5426 372.478 Q22.0542 367.704 29.2474 365.348 Q36.4406 362.961 43.5384 362.961 Q50.668 362.961 57.8931 365.348 Q65.1182 367.704 72.5979 372.478 L72.5979 377.571 Q65.3091 373.337 58.1159 371.269 Q50.8908 369.168 43.5384 369.168 Q36.186 369.168 29.0246 371.269 Q21.8632 373.337 14.5426 377.571 Z" fill="#000000" fill-rule="nonzero" fill-opacity="1" /><polyline clip-path="url(#clip672)" style="stroke:#009af9; stroke-linecap:round; stroke-linejoin:round; stroke-width:4; stroke-opacity:1; fill:none" points="315.882,1384.24 335.658,1365.85 355.433,1347.46 375.209,1329.06 394.984,1310.67 414.76,1292.28 434.535,1265.04 454.311,1237.8 474.086,1210.55 493.862,1183.31 513.637,1156.07 533.412,1139.07 553.188,1122.08 572.963,1105.09 592.739,1088.09 612.514,1071.1 632.29,1056.74 652.065,1042.38 671.841,1028.02 691.616,1013.66 711.392,999.295 731.167,987.752 750.943,976.208 770.718,964.665 790.494,953.122 810.269,941.579 830.045,931.658 849.82,921.736 869.596,911.815 889.371,901.893 909.146,891.972 928.922,883.245 948.697,874.518 968.473,865.791 988.248,857.064 1008.02,848.336 1027.8,840.391 1047.57,832.445 1067.35,824.5 1087.13,816.554 1106.9,808.609 1126.68,801.152 1146.45,793.696 1166.23,786.24 1186,778.783 1205.78,771.327 1225.55,764.104 1245.33,756.881 1265.1,749.658 1284.88,742.435 1304.66,735.212 1324.43,727.989 1344.21,720.766 1363.98,713.543 1383.76,706.32 1403.53,699.097 1423.31,691.641 1443.08,684.184 1462.86,676.728 1482.64,669.272 1502.41,661.815 1522.19,653.87 1541.96,645.924 1561.74,637.979 1581.51,630.033 1601.29,622.088 1621.06,613.36 1640.84,604.633 1660.61,595.906 1680.39,587.179 1700.17,578.452 1719.94,568.53 1739.72,558.609 1759.49,548.688 1779.27,538.766 1799.04,528.845 1818.82,517.302 1838.59,505.759 1858.37,494.215 1878.14,482.672 1897.92,471.129 1917.7,456.768 1937.47,442.407 1957.25,428.046 1977.02,413.685 1996.8,399.324 2016.57,382.331 2036.35,365.337 2056.12,348.344 2075.9,331.35 2095.67,314.357 2115.45,287.114 2135.23,259.871 2155,232.627 2174.78,205.384 2194.55,178.141 2214.33,159.75 2234.1,141.359 2253.88,122.968 2273.65,104.577 2293.43,86.1857 "/>
</svg>
