<svg xmlns="http://www.w3.org/2000/svg" viewBox="0 0 960 430" role="img" aria-labelledby="title desc"><title id="title">Moments for basis 2</title><desc id="desc">Density includes the edge-length factor and, for weighted moments, the linear weight. Shaded area is signed. The selected functional integrates to one; all others integrate to zero.</desc><rect width="960" height="430" rx="16" fill="#f7fafb"/><g font-family="system-ui, sans-serif">
<text x="26.0" y="32.0" fill="#243944" font-size="17" text-anchor="start">Edge densities · signed area gives the functional</text>
<path d="M 53.0,124.0 L 278.0,124.0" fill="none" stroke="#607782" stroke-width="1.5" stroke-dasharray=""/>
<path d="M 53.0,173.0 L 53.0,75.0" fill="none" stroke="#d5e0e5" stroke-width="1.5" stroke-dasharray=""/>
<polygon points="53.0,124.0 53.0,167.75 56.75,164.87 60.5,162.062 64.25,159.328 68.0,156.667 71.75,154.078 75.5,151.562 79.25,149.12 83.0,146.75 86.75,144.453 90.5,142.229 94.25,140.078 98.0,138.0 101.75,135.995 105.5,134.062 109.25,132.203 113.0,130.417 116.75,128.703 120.5,127.062 124.25,125.495 128.0,124.0 131.75,122.578 135.5,121.229 139.25,119.953 143.0,118.75 146.75,117.62 150.5,116.562 154.25,115.578 158.0,114.667 161.75,113.828 165.5,113.062 169.25,112.37 173.0,111.75 176.75,111.203 180.5,110.729 184.25,110.328 188.0,110.0 191.75,109.745 195.5,109.562 199.25,109.453 203.0,109.417 206.75,109.453 210.5,109.562 214.25,109.745 218.0,110.0 221.75,110.328 225.5,110.729 229.25,111.203 233.0,111.75 236.75,112.37 240.5,113.062 244.25,113.828 248.0,114.667 251.75,115.578 255.5,116.562 259.25,117.62 263.0,118.75 266.75,119.953 270.5,121.229 274.25,122.578 278.0,124.0 278.0,124.0" fill="#d5e0e5" stroke="none" stroke-width="1" stroke-linejoin="round"/>
<polyline points="53.0,167.75 56.75,164.87 60.5,162.062 64.25,159.328 68.0,156.667 71.75,154.078 75.5,151.562 79.25,149.12 83.0,146.75 86.75,144.453 90.5,142.229 94.25,140.078 98.0,138.0 101.75,135.995 105.5,134.062 109.25,132.203 113.0,130.417 116.75,128.703 120.5,127.062 124.25,125.495 128.0,124.0 131.75,122.578 135.5,121.229 139.25,119.953 143.0,118.75 146.75,117.62 150.5,116.562 154.25,115.578 158.0,114.667 161.75,113.828 165.5,113.062 169.25,112.37 173.0,111.75 176.75,111.203 180.5,110.729 184.25,110.328 188.0,110.0 191.75,109.745 195.5,109.562 199.25,109.453 203.0,109.417 206.75,109.453 210.5,109.562 214.25,109.745 218.0,110.0 221.75,110.328 225.5,110.729 229.25,111.203 233.0,111.75 236.75,112.37 240.5,113.062 244.25,113.828 248.0,114.667 251.75,115.578 255.5,116.562 259.25,117.62 263.0,118.75 266.75,119.953 270.5,121.229 274.25,122.578 278.0,124.0" fill="none" stroke="#cf6943" stroke-width="2.4" stroke-dasharray="5 4"/>
<polyline points="53.0,167.75 56.75,164.87 60.5,162.062 64.25,159.328 68.0,156.667 71.75,154.078 75.5,151.562 79.25,149.12 83.0,146.75 86.75,144.453 90.5,142.229 94.25,140.078 98.0,138.0 101.75,135.995 105.5,134.062 109.25,132.203 113.0,130.417 116.75,128.703 120.5,127.062 124.25,125.495 128.0,124.0 131.75,122.578 135.5,121.229 139.25,119.953 143.0,118.75 146.75,117.62 150.5,116.562 154.25,115.578 158.0,114.667 161.75,113.828 165.5,113.062 169.25,112.37 173.0,111.75 176.75,111.203 180.5,110.729 184.25,110.328 188.0,110.0 191.75,109.745 195.5,109.562 199.25,109.453 203.0,109.417 206.75,109.453 210.5,109.562 214.25,109.745 218.0,110.0 221.75,110.328 225.5,110.729 229.25,111.203 233.0,111.75 236.75,112.37 240.5,113.062 244.25,113.828 248.0,114.667 251.75,115.578 255.5,116.562 259.25,117.62 263.0,118.75 266.75,119.953 270.5,121.229 274.25,122.578 278.0,124.0" fill="none" stroke="#007f86" stroke-width="2.4" stroke-dasharray=""/>
<text x="53.0" y="63.0" fill="#243944" font-size="13" text-anchor="start">edge 1 · ℓ1</text>
<text x="46.0" y="79.0" fill="#607782" font-size="10" text-anchor="end">2.24</text>
<text x="46.0" y="173.0" fill="#607782" font-size="10" text-anchor="end">-2.24</text>
<text x="53.0" y="191.0" fill="#607782" font-size="11" text-anchor="start">s = 0</text>
<text x="278.0" y="191.0" fill="#607782" font-size="11" text-anchor="end">1</text>
<text x="53.0" y="211.0" fill="#007f86" font-size="12" text-anchor="start">integral = 0</text>
<path d="M 53.0,304.0 L 278.0,304.0" fill="none" stroke="#607782" stroke-width="1.5" stroke-dasharray=""/>
<path d="M 53.0,353.0 L 53.0,255.0" fill="none" stroke="#d5e0e5" stroke-width="1.5" stroke-dasharray=""/>
<polygon points="53.0,304.0 53.0,304.0 56.75,304.346 60.5,304.656 64.25,304.93 68.0,305.167 71.75,305.367 75.5,305.531 79.25,305.659 83.0,305.75 86.75,305.805 90.5,305.823 94.25,305.805 98.0,305.75 101.75,305.659 105.5,305.531 109.25,305.367 113.0,305.167 116.75,304.93 120.5,304.656 124.25,304.346 128.0,304.0 131.75,303.617 135.5,303.198 139.25,302.742 143.0,302.25 146.75,301.721 150.5,301.156 154.25,300.555 158.0,299.917 161.75,299.242 165.5,298.531 169.25,297.784 173.0,297.0 176.75,296.18 180.5,295.323 184.25,294.43 188.0,293.5 191.75,292.534 195.5,291.531 199.25,290.492 203.0,289.417 206.75,288.305 210.5,287.156 214.25,285.971 218.0,284.75 221.75,283.492 225.5,282.198 229.25,280.867 233.0,279.5 236.75,278.096 240.5,276.656 244.25,275.18 248.0,273.667 251.75,272.117 255.5,270.531 259.25,268.909 263.0,267.25 266.75,265.555 270.5,263.823 274.25,262.055 278.0,260.25 278.0,304.0" fill="#d5e0e5" stroke="none" stroke-width="1" stroke-linejoin="round"/>
<polyline points="53.0,304.0 56.75,304.346 60.5,304.656 64.25,304.93 68.0,305.167 71.75,305.367 75.5,305.531 79.25,305.659 83.0,305.75 86.75,305.805 90.5,305.823 94.25,305.805 98.0,305.75 101.75,305.659 105.5,305.531 109.25,305.367 113.0,305.167 116.75,304.93 120.5,304.656 124.25,304.346 128.0,304.0 131.75,303.617 135.5,303.198 139.25,302.742 143.0,302.25 146.75,301.721 150.5,301.156 154.25,300.555 158.0,299.917 161.75,299.242 165.5,298.531 169.25,297.784 173.0,297.0 176.75,296.18 180.5,295.323 184.25,294.43 188.0,293.5 191.75,292.534 195.5,291.531 199.25,290.492 203.0,289.417 206.75,288.305 210.5,287.156 214.25,285.971 218.0,284.75 221.75,283.492 225.5,282.198 229.25,280.867 233.0,279.5 236.75,278.096 240.5,276.656 244.25,275.18 248.0,273.667 251.75,272.117 255.5,270.531 259.25,268.909 263.0,267.25 266.75,265.555 270.5,263.823 274.25,262.055 278.0,260.25" fill="none" stroke="#cf6943" stroke-width="2.4" stroke-dasharray="5 4"/>
<polyline points="53.0,304.0 56.75,304.346 60.5,304.656 64.25,304.93 68.0,305.167 71.75,305.367 75.5,305.531 79.25,305.659 83.0,305.75 86.75,305.805 90.5,305.823 94.25,305.805 98.0,305.75 101.75,305.659 105.5,305.531 109.25,305.367 113.0,305.167 116.75,304.93 120.5,304.656 124.25,304.346 128.0,304.0 131.75,303.617 135.5,303.198 139.25,302.742 143.0,302.25 146.75,301.721 150.5,301.156 154.25,300.555 158.0,299.917 161.75,299.242 165.5,298.531 169.25,297.784 173.0,297.0 176.75,296.18 180.5,295.323 184.25,294.43 188.0,293.5 191.75,292.534 195.5,291.531 199.25,290.492 203.0,289.417 206.75,288.305 210.5,287.156 214.25,285.971 218.0,284.75 221.75,283.492 225.5,282.198 229.25,280.867 233.0,279.5 236.75,278.096 240.5,276.656 244.25,275.18 248.0,273.667 251.75,272.117 255.5,270.531 259.25,268.909 263.0,267.25 266.75,265.555 270.5,263.823 274.25,262.055 278.0,260.25" fill="none" stroke="#007f86" stroke-width="2.4" stroke-dasharray=""/>
<text x="53.0" y="243.0" fill="#cf6943" font-size="13" text-anchor="start">edge 1 · ℓ2</text>
<text x="46.0" y="259.0" fill="#607782" font-size="10" text-anchor="end">4.48</text>
<text x="46.0" y="353.0" fill="#607782" font-size="10" text-anchor="end">-4.48</text>
<text x="53.0" y="371.0" fill="#607782" font-size="11" text-anchor="start">s = 0</text>
<text x="278.0" y="371.0" fill="#607782" font-size="11" text-anchor="end">1</text>
<text x="53.0" y="391.0" fill="#007f86" font-size="12" text-anchor="start">integral = 1.0</text>
<path d="M 373.0,124.0 L 598.0,124.0" fill="none" stroke="#607782" stroke-width="1.5" stroke-dasharray=""/>
<path d="M 373.0,173.0 L 373.0,75.0" fill="none" stroke="#d5e0e5" stroke-width="1.5" stroke-dasharray=""/>
<polygon points="373.0,124.0 373.0,124.0 376.75,124.0 380.5,124.0 384.25,124.0 388.0,124.0 391.75,124.0 395.5,124.0 399.25,124.0 403.0,124.0 406.75,124.0 410.5,124.0 414.25,124.0 418.0,124.0 421.75,124.0 425.5,124.0 429.25,124.0 433.0,124.0 436.75,124.0 440.5,124.0 444.25,124.0 448.0,124.0 451.75,124.0 455.5,124.0 459.25,124.0 463.0,124.0 466.75,124.0 470.5,124.0 474.25,124.0 478.0,124.0 481.75,124.0 485.5,124.0 489.25,124.0 493.0,124.0 496.75,124.0 500.5,124.0 504.25,124.0 508.0,124.0 511.75,124.0 515.5,124.0 519.25,124.0 523.0,124.0 526.75,124.0 530.5,124.0 534.25,124.0 538.0,124.0 541.75,124.0 545.5,124.0 549.25,124.0 553.0,124.0 556.75,124.0 560.5,124.0 564.25,124.0 568.0,124.0 571.75,124.0 575.5,124.0 579.25,124.0 583.0,124.0 586.75,124.0 590.5,124.0 594.25,124.0 598.0,124.0 598.0,124.0" fill="#d5e0e5" stroke="none" stroke-width="1" stroke-linejoin="round"/>
<polyline points="373.0,124.0 376.75,124.0 380.5,124.0 384.25,124.0 388.0,124.0 391.75,124.0 395.5,124.0 399.25,124.0 403.0,124.0 406.75,124.0 410.5,124.0 414.25,124.0 418.0,124.0 421.75,124.0 425.5,124.0 429.25,124.0 433.0,124.0 436.75,124.0 440.5,124.0 444.25,124.0 448.0,124.0 451.75,124.0 455.5,124.0 459.25,124.0 463.0,124.0 466.75,124.0 470.5,124.0 474.25,124.0 478.0,124.0 481.75,124.0 485.5,124.0 489.25,124.0 493.0,124.0 496.75,124.0 500.5,124.0 504.25,124.0 508.0,124.0 511.75,124.0 515.5,124.0 519.25,124.0 523.0,124.0 526.75,124.0 530.5,124.0 534.25,124.0 538.0,124.0 541.75,124.0 545.5,124.0 549.25,124.0 553.0,124.0 556.75,124.0 560.5,124.0 564.25,124.0 568.0,124.0 571.75,124.0 575.5,124.0 579.25,124.0 583.0,124.0 586.75,124.0 590.5,124.0 594.25,124.0 598.0,124.0" fill="none" stroke="#cf6943" stroke-width="2.4" stroke-dasharray="5 4"/>
<polyline points="373.0,124.0 376.75,124.0 380.5,124.0 384.25,124.0 388.0,124.0 391.75,124.0 395.5,124.0 399.25,124.0 403.0,124.0 406.75,124.0 410.5,124.0 414.25,124.0 418.0,124.0 421.75,124.0 425.5,124.0 429.25,124.0 433.0,124.0 436.75,124.0 440.5,124.0 444.25,124.0 448.0,124.0 451.75,124.0 455.5,124.0 459.25,124.0 463.0,124.0 466.75,124.0 470.5,124.0 474.25,124.0 478.0,124.0 481.75,124.0 485.5,124.0 489.25,124.0 493.0,124.0 496.75,124.0 500.5,124.0 504.25,124.0 508.0,124.0 511.75,124.0 515.5,124.0 519.25,124.0 523.0,124.0 526.75,124.0 530.5,124.0 534.25,124.0 538.0,124.0 541.75,124.0 545.5,124.0 549.25,124.0 553.0,124.0 556.75,124.0 560.5,124.0 564.25,124.0 568.0,124.0 571.75,124.0 575.5,124.0 579.25,124.0 583.0,124.0 586.75,124.0 590.5,124.0 594.25,124.0 598.0,124.0" fill="none" stroke="#007f86" stroke-width="2.4" stroke-dasharray=""/>
<text x="373.0" y="63.0" fill="#243944" font-size="13" text-anchor="start">edge 2 · ℓ3</text>
<text x="366.0" y="79.0" fill="#607782" font-size="10" text-anchor="end">1.12</text>
<text x="366.0" y="173.0" fill="#607782" font-size="10" text-anchor="end">-1.12</text>
<text x="373.0" y="191.0" fill="#607782" font-size="11" text-anchor="start">s = 0</text>
<text x="598.0" y="191.0" fill="#607782" font-size="11" text-anchor="end">1</text>
<text x="373.0" y="211.0" fill="#007f86" font-size="12" text-anchor="start">integral = 0</text>
<path d="M 373.0,304.0 L 598.0,304.0" fill="none" stroke="#607782" stroke-width="1.5" stroke-dasharray=""/>
<path d="M 373.0,353.0 L 373.0,255.0" fill="none" stroke="#d5e0e5" stroke-width="1.5" stroke-dasharray=""/>
<polygon points="373.0,304.0 373.0,304.0 376.75,304.0 380.5,304.0 384.25,304.0 388.0,304.0 391.75,304.0 395.5,304.0 399.25,304.0 403.0,304.0 406.75,304.0 410.5,304.0 414.25,304.0 418.0,304.0 421.75,304.0 425.5,304.0 429.25,304.0 433.0,304.0 436.75,304.0 440.5,304.0 444.25,304.0 448.0,304.0 451.75,304.0 455.5,304.0 459.25,304.0 463.0,304.0 466.75,304.0 470.5,304.0 474.25,304.0 478.0,304.0 481.75,304.0 485.5,304.0 489.25,304.0 493.0,304.0 496.75,304.0 500.5,304.0 504.25,304.0 508.0,304.0 511.75,304.0 515.5,304.0 519.25,304.0 523.0,304.0 526.75,304.0 530.5,304.0 534.25,304.0 538.0,304.0 541.75,304.0 545.5,304.0 549.25,304.0 553.0,304.0 556.75,304.0 560.5,304.0 564.25,304.0 568.0,304.0 571.75,304.0 575.5,304.0 579.25,304.0 583.0,304.0 586.75,304.0 590.5,304.0 594.25,304.0 598.0,304.0 598.0,304.0" fill="#d5e0e5" stroke="none" stroke-width="1" stroke-linejoin="round"/>
<polyline points="373.0,304.0 376.75,304.0 380.5,304.0 384.25,304.0 388.0,304.0 391.75,304.0 395.5,304.0 399.25,304.0 403.0,304.0 406.75,304.0 410.5,304.0 414.25,304.0 418.0,304.0 421.75,304.0 425.5,304.0 429.25,304.0 433.0,304.0 436.75,304.0 440.5,304.0 444.25,304.0 448.0,304.0 451.75,304.0 455.5,304.0 459.25,304.0 463.0,304.0 466.75,304.0 470.5,304.0 474.25,304.0 478.0,304.0 481.75,304.0 485.5,304.0 489.25,304.0 493.0,304.0 496.75,304.0 500.5,304.0 504.25,304.0 508.0,304.0 511.75,304.0 515.5,304.0 519.25,304.0 523.0,304.0 526.75,304.0 530.5,304.0 534.25,304.0 538.0,304.0 541.75,304.0 545.5,304.0 549.25,304.0 553.0,304.0 556.75,304.0 560.5,304.0 564.25,304.0 568.0,304.0 571.75,304.0 575.5,304.0 579.25,304.0 583.0,304.0 586.75,304.0 590.5,304.0 594.25,304.0 598.0,304.0" fill="none" stroke="#cf6943" stroke-width="2.4" stroke-dasharray="5 4"/>
<polyline points="373.0,304.0 376.75,304.0 380.5,304.0 384.25,304.0 388.0,304.0 391.75,304.0 395.5,304.0 399.25,304.0 403.0,304.0 406.75,304.0 410.5,304.0 414.25,304.0 418.0,304.0 421.75,304.0 425.5,304.0 429.25,304.0 433.0,304.0 436.75,304.0 440.5,304.0 444.25,304.0 448.0,304.0 451.75,304.0 455.5,304.0 459.25,304.0 463.0,304.0 466.75,304.0 470.5,304.0 474.25,304.0 478.0,304.0 481.75,304.0 485.5,304.0 489.25,304.0 493.0,304.0 496.75,304.0 500.5,304.0 504.25,304.0 508.0,304.0 511.75,304.0 515.5,304.0 519.25,304.0 523.0,304.0 526.75,304.0 530.5,304.0 534.25,304.0 538.0,304.0 541.75,304.0 545.5,304.0 549.25,304.0 553.0,304.0 556.75,304.0 560.5,304.0 564.25,304.0 568.0,304.0 571.75,304.0 575.5,304.0 579.25,304.0 583.0,304.0 586.75,304.0 590.5,304.0 594.25,304.0 598.0,304.0" fill="none" stroke="#007f86" stroke-width="2.4" stroke-dasharray=""/>
<text x="373.0" y="243.0" fill="#243944" font-size="13" text-anchor="start">edge 2 · ℓ4</text>
<text x="366.0" y="259.0" fill="#607782" font-size="10" text-anchor="end">1.12</text>
<text x="366.0" y="353.0" fill="#607782" font-size="10" text-anchor="end">-1.12</text>
<text x="373.0" y="371.0" fill="#607782" font-size="11" text-anchor="start">s = 0</text>
<text x="598.0" y="371.0" fill="#607782" font-size="11" text-anchor="end">1</text>
<text x="373.0" y="391.0" fill="#007f86" font-size="12" text-anchor="start">integral = 0</text>
<path d="M 693.0,124.0 L 918.0,124.0" fill="none" stroke="#607782" stroke-width="1.5" stroke-dasharray=""/>
<path d="M 693.0,173.0 L 693.0,75.0" fill="none" stroke="#d5e0e5" stroke-width="1.5" stroke-dasharray=""/>
<polygon points="693.0,124.0 693.0,124.0 696.75,124.0 700.5,124.0 704.25,124.0 708.0,124.0 711.75,124.0 715.5,124.0 719.25,124.0 723.0,124.0 726.75,124.0 730.5,124.0 734.25,124.0 738.0,124.0 741.75,124.0 745.5,124.0 749.25,124.0 753.0,124.0 756.75,124.0 760.5,124.0 764.25,124.0 768.0,124.0 771.75,124.0 775.5,124.0 779.25,124.0 783.0,124.0 786.75,124.0 790.5,124.0 794.25,124.0 798.0,124.0 801.75,124.0 805.5,124.0 809.25,124.0 813.0,124.0 816.75,124.0 820.5,124.0 824.25,124.0 828.0,124.0 831.75,124.0 835.5,124.0 839.25,124.0 843.0,124.0 846.75,124.0 850.5,124.0 854.25,124.0 858.0,124.0 861.75,124.0 865.5,124.0 869.25,124.0 873.0,124.0 876.75,124.0 880.5,124.0 884.25,124.0 888.0,124.0 891.75,124.0 895.5,124.0 899.25,124.0 903.0,124.0 906.75,124.0 910.5,124.0 914.25,124.0 918.0,124.0 918.0,124.0" fill="#d5e0e5" stroke="none" stroke-width="1" stroke-linejoin="round"/>
<polyline points="693.0,124.0 696.75,124.0 700.5,124.0 704.25,124.0 708.0,124.0 711.75,124.0 715.5,124.0 719.25,124.0 723.0,124.0 726.75,124.0 730.5,124.0 734.25,124.0 738.0,124.0 741.75,124.0 745.5,124.0 749.25,124.0 753.0,124.0 756.75,124.0 760.5,124.0 764.25,124.0 768.0,124.0 771.75,124.0 775.5,124.0 779.25,124.0 783.0,124.0 786.75,124.0 790.5,124.0 794.25,124.0 798.0,124.0 801.75,124.0 805.5,124.0 809.25,124.0 813.0,124.0 816.75,124.0 820.5,124.0 824.25,124.0 828.0,124.0 831.75,124.0 835.5,124.0 839.25,124.0 843.0,124.0 846.75,124.0 850.5,124.0 854.25,124.0 858.0,124.0 861.75,124.0 865.5,124.0 869.25,124.0 873.0,124.0 876.75,124.0 880.5,124.0 884.25,124.0 888.0,124.0 891.75,124.0 895.5,124.0 899.25,124.0 903.0,124.0 906.75,124.0 910.5,124.0 914.25,124.0 918.0,124.0" fill="none" stroke="#cf6943" stroke-width="2.4" stroke-dasharray="5 4"/>
<polyline points="693.0,124.0 696.75,124.0 700.5,124.0 704.25,124.0 708.0,124.0 711.75,124.0 715.5,124.0 719.25,124.0 723.0,124.0 726.75,124.0 730.5,124.0 734.25,124.0 738.0,124.0 741.75,124.0 745.5,124.0 749.25,124.0 753.0,124.0 756.75,124.0 760.5,124.0 764.25,124.0 768.0,124.0 771.75,124.0 775.5,124.0 779.25,124.0 783.0,124.0 786.75,124.0 790.5,124.0 794.25,124.0 798.0,124.0 801.75,124.0 805.5,124.0 809.25,124.0 813.0,124.0 816.75,124.0 820.5,124.0 824.25,124.0 828.0,124.0 831.75,124.0 835.5,124.0 839.25,124.0 843.0,124.0 846.75,124.0 850.5,124.0 854.25,124.0 858.0,124.0 861.75,124.0 865.5,124.0 869.25,124.0 873.0,124.0 876.75,124.0 880.5,124.0 884.25,124.0 888.0,124.0 891.75,124.0 895.5,124.0 899.25,124.0 903.0,124.0 906.75,124.0 910.5,124.0 914.25,124.0 918.0,124.0" fill="none" stroke="#007f86" stroke-width="2.4" stroke-dasharray=""/>
<text x="693.0" y="63.0" fill="#243944" font-size="13" text-anchor="start">edge 3 · ℓ5</text>
<text x="686.0" y="79.0" fill="#607782" font-size="10" text-anchor="end">1.12</text>
<text x="686.0" y="173.0" fill="#607782" font-size="10" text-anchor="end">-1.12</text>
<text x="693.0" y="191.0" fill="#607782" font-size="11" text-anchor="start">s = 0</text>
<text x="918.0" y="191.0" fill="#607782" font-size="11" text-anchor="end">1</text>
<text x="693.0" y="211.0" fill="#007f86" font-size="12" text-anchor="start">integral = 0</text>
<path d="M 693.0,304.0 L 918.0,304.0" fill="none" stroke="#607782" stroke-width="1.5" stroke-dasharray=""/>
<path d="M 693.0,353.0 L 693.0,255.0" fill="none" stroke="#d5e0e5" stroke-width="1.5" stroke-dasharray=""/>
<polygon points="693.0,304.0 693.0,304.0 696.75,304.0 700.5,304.0 704.25,304.0 708.0,304.0 711.75,304.0 715.5,304.0 719.25,304.0 723.0,304.0 726.75,304.0 730.5,304.0 734.25,304.0 738.0,304.0 741.75,304.0 745.5,304.0 749.25,304.0 753.0,304.0 756.75,304.0 760.5,304.0 764.25,304.0 768.0,304.0 771.75,304.0 775.5,304.0 779.25,304.0 783.0,304.0 786.75,304.0 790.5,304.0 794.25,304.0 798.0,304.0 801.75,304.0 805.5,304.0 809.25,304.0 813.0,304.0 816.75,304.0 820.5,304.0 824.25,304.0 828.0,304.0 831.75,304.0 835.5,304.0 839.25,304.0 843.0,304.0 846.75,304.0 850.5,304.0 854.25,304.0 858.0,304.0 861.75,304.0 865.5,304.0 869.25,304.0 873.0,304.0 876.75,304.0 880.5,304.0 884.25,304.0 888.0,304.0 891.75,304.0 895.5,304.0 899.25,304.0 903.0,304.0 906.75,304.0 910.5,304.0 914.25,304.0 918.0,304.0 918.0,304.0" fill="#d5e0e5" stroke="none" stroke-width="1" stroke-linejoin="round"/>
<polyline points="693.0,304.0 696.75,304.0 700.5,304.0 704.25,304.0 708.0,304.0 711.75,304.0 715.5,304.0 719.25,304.0 723.0,304.0 726.75,304.0 730.5,304.0 734.25,304.0 738.0,304.0 741.75,304.0 745.5,304.0 749.25,304.0 753.0,304.0 756.75,304.0 760.5,304.0 764.25,304.0 768.0,304.0 771.75,304.0 775.5,304.0 779.25,304.0 783.0,304.0 786.75,304.0 790.5,304.0 794.25,304.0 798.0,304.0 801.75,304.0 805.5,304.0 809.25,304.0 813.0,304.0 816.75,304.0 820.5,304.0 824.25,304.0 828.0,304.0 831.75,304.0 835.5,304.0 839.25,304.0 843.0,304.0 846.75,304.0 850.5,304.0 854.25,304.0 858.0,304.0 861.75,304.0 865.5,304.0 869.25,304.0 873.0,304.0 876.75,304.0 880.5,304.0 884.25,304.0 888.0,304.0 891.75,304.0 895.5,304.0 899.25,304.0 903.0,304.0 906.75,304.0 910.5,304.0 914.25,304.0 918.0,304.0" fill="none" stroke="#cf6943" stroke-width="2.4" stroke-dasharray="5 4"/>
<polyline points="693.0,304.0 696.75,304.0 700.5,304.0 704.25,304.0 708.0,304.0 711.75,304.0 715.5,304.0 719.25,304.0 723.0,304.0 726.75,304.0 730.5,304.0 734.25,304.0 738.0,304.0 741.75,304.0 745.5,304.0 749.25,304.0 753.0,304.0 756.75,304.0 760.5,304.0 764.25,304.0 768.0,304.0 771.75,304.0 775.5,304.0 779.25,304.0 783.0,304.0 786.75,304.0 790.5,304.0 794.25,304.0 798.0,304.0 801.75,304.0 805.5,304.0 809.25,304.0 813.0,304.0 816.75,304.0 820.5,304.0 824.25,304.0 828.0,304.0 831.75,304.0 835.5,304.0 839.25,304.0 843.0,304.0 846.75,304.0 850.5,304.0 854.25,304.0 858.0,304.0 861.75,304.0 865.5,304.0 869.25,304.0 873.0,304.0 876.75,304.0 880.5,304.0 884.25,304.0 888.0,304.0 891.75,304.0 895.5,304.0 899.25,304.0 903.0,304.0 906.75,304.0 910.5,304.0 914.25,304.0 918.0,304.0" fill="none" stroke="#007f86" stroke-width="2.4" stroke-dasharray=""/>
<text x="693.0" y="243.0" fill="#243944" font-size="13" text-anchor="start">edge 3 · ℓ6</text>
<text x="686.0" y="259.0" fill="#607782" font-size="10" text-anchor="end">1.12</text>
<text x="686.0" y="353.0" fill="#607782" font-size="10" text-anchor="end">-1.12</text>
<text x="693.0" y="371.0" fill="#607782" font-size="11" text-anchor="start">s = 0</text>
<text x="918.0" y="371.0" fill="#607782" font-size="11" text-anchor="end">1</text>
<text x="693.0" y="391.0" fill="#007f86" font-size="12" text-anchor="start">integral = 0</text>
</g></svg>
