<svg xmlns="http://www.w3.org/2000/svg" viewBox="0 0 960 440" role="img" aria-labelledby="title desc"><title id="title">Raviart–Thomas: basis 3</title><desc id="desc">One outward flux integral per edge determines a vector field. Selected dof 3 is orange; all numbers use Ferrite local ordering.</desc><rect width="960" height="440" rx="16" fill="#f7fafb"/><g font-family="system-ui, sans-serif">
<text x="26.0" y="34.0" fill="#243944" font-size="16" text-anchor="start">Vector basis · arrows = direction and magnitude</text>
<polygon points="398.0,350.0 88.0,70.0 88.0,350.0" fill="#f7fafb" stroke="#d5e0e5" stroke-width="2" stroke-linejoin="round"/>
<path d="M 119.0,322.0 L 120.397,334.571" fill="none" stroke="#007f86" stroke-width="1.8" stroke-dasharray=""/>
<polygon points="120.993,339.938 117.647,334.273 123.014,333.676" fill="#007f86" stroke="none" stroke-width="1" stroke-linejoin="round"/>
<path d="M 150.0,322.0 L 152.815,334.666" fill="none" stroke="#007f86" stroke-width="1.8" stroke-dasharray=""/>
<polygon points="153.986,339.938 150.049,334.666 155.32,333.495" fill="#007f86" stroke="none" stroke-width="1" stroke-linejoin="round"/>
<path d="M 181.0,322.0 L 185.272,334.815" fill="none" stroke="#007f86" stroke-width="1.8" stroke-dasharray=""/>
<polygon points="186.979,339.938 182.52,335.1 187.643,333.392" fill="#007f86" stroke="none" stroke-width="1" stroke-linejoin="round"/>
<path d="M 212.0,322.0 L 217.779,335.003" fill="none" stroke="#007f86" stroke-width="1.8" stroke-dasharray=""/>
<polygon points="219.972,339.938 215.068,335.552 220.003,333.358" fill="#007f86" stroke="none" stroke-width="1" stroke-linejoin="round"/>
<path d="M 243.0,322.0 L 250.343,335.217" fill="none" stroke="#007f86" stroke-width="1.8" stroke-dasharray=""/>
<polygon points="252.965,339.938 247.691,336.004 252.412,333.382" fill="#007f86" stroke="none" stroke-width="1" stroke-linejoin="round"/>
<path d="M 274.0,322.0 L 282.963,335.445" fill="none" stroke="#007f86" stroke-width="1.8" stroke-dasharray=""/>
<polygon points="285.959,339.938 280.384,336.443 284.877,333.448" fill="#007f86" stroke="none" stroke-width="1" stroke-linejoin="round"/>
<path d="M 305.0,322.0 L 315.636,335.675" fill="none" stroke="#007f86" stroke-width="1.8" stroke-dasharray=""/>
<polygon points="318.952,339.938 313.137,336.859 317.399,333.544" fill="#007f86" stroke="none" stroke-width="1" stroke-linejoin="round"/>
<path d="M 336.0,322.0 L 348.357,335.902" fill="none" stroke="#007f86" stroke-width="1.8" stroke-dasharray=""/>
<polygon points="351.945,339.938 345.941,337.247 349.977,333.66" fill="#007f86" stroke="none" stroke-width="1" stroke-linejoin="round"/>
<path d="M 119.0,294.0 L 120.323,304.586" fill="none" stroke="#007f86" stroke-width="1.8" stroke-dasharray=""/>
<polygon points="120.993,309.945 117.57,304.326 122.928,303.656" fill="#007f86" stroke="none" stroke-width="1" stroke-linejoin="round"/>
<path d="M 150.0,294.0 L 152.676,304.706" fill="none" stroke="#007f86" stroke-width="1.8" stroke-dasharray=""/>
<polygon points="153.986,309.945 149.912,304.779 155.15,303.469" fill="#007f86" stroke="none" stroke-width="1" stroke-linejoin="round"/>
<path d="M 181.0,294.0 L 185.083,304.889" fill="none" stroke="#007f86" stroke-width="1.8" stroke-dasharray=""/>
<polygon points="186.979,309.945 182.344,305.275 187.401,303.379" fill="#007f86" stroke="none" stroke-width="1" stroke-linejoin="round"/>
<path d="M 212.0,294.0 L 217.557,305.115" fill="none" stroke="#007f86" stroke-width="1.8" stroke-dasharray=""/>
<polygon points="219.972,309.945 214.874,305.786 219.704,303.371" fill="#007f86" stroke="none" stroke-width="1" stroke-linejoin="round"/>
<path d="M 243.0,294.0 L 250.103,305.366" fill="none" stroke="#007f86" stroke-width="1.8" stroke-dasharray=""/>
<polygon points="252.965,309.945 247.496,306.288 252.075,303.426" fill="#007f86" stroke="none" stroke-width="1" stroke-linejoin="round"/>
<path d="M 274.0,294.0 L 282.719,305.625" fill="none" stroke="#007f86" stroke-width="1.8" stroke-dasharray=""/>
<polygon points="285.959,309.945 280.199,306.765 284.519,303.525" fill="#007f86" stroke="none" stroke-width="1" stroke-linejoin="round"/>
<path d="M 305.0,294.0 L 315.396,305.881" fill="none" stroke="#007f86" stroke-width="1.8" stroke-dasharray=""/>
<polygon points="318.952,309.945 312.969,307.207 317.033,303.651" fill="#007f86" stroke="none" stroke-width="1" stroke-linejoin="round"/>
<path d="M 119.0,266.0 L 120.276,274.929" fill="none" stroke="#007f86" stroke-width="1.8" stroke-dasharray=""/>
<polygon points="120.993,279.952 117.685,274.73 122.707,274.012" fill="#007f86" stroke="none" stroke-width="1" stroke-linejoin="round"/>
<path d="M 150.0,266.0 L 152.551,274.929" fill="none" stroke="#007f86" stroke-width="1.8" stroke-dasharray=""/>
<polygon points="153.986,279.952 149.88,275.088 154.903,273.653" fill="#007f86" stroke="none" stroke-width="1" stroke-linejoin="round"/>
<path d="M 181.0,266.0 L 184.852,274.988" fill="none" stroke="#007f86" stroke-width="1.8" stroke-dasharray=""/>
<polygon points="186.979,279.952 182.134,275.5 187.097,273.373" fill="#007f86" stroke="none" stroke-width="1" stroke-linejoin="round"/>
<path d="M 212.0,266.0 L 217.293,275.263" fill="none" stroke="#007f86" stroke-width="1.8" stroke-dasharray=""/>
<polygon points="219.972,279.952 214.651,276.082 219.34,273.403" fill="#007f86" stroke="none" stroke-width="1" stroke-linejoin="round"/>
<path d="M 243.0,266.0 L 249.827,275.557" fill="none" stroke="#007f86" stroke-width="1.8" stroke-dasharray=""/>
<polygon points="252.965,279.952 247.281,276.639 251.675,273.5" fill="#007f86" stroke="none" stroke-width="1" stroke-linejoin="round"/>
<path d="M 274.0,266.0 L 282.444,275.852" fill="none" stroke="#007f86" stroke-width="1.8" stroke-dasharray=""/>
<polygon points="285.959,279.952 280.004,277.153 284.104,273.639" fill="#007f86" stroke="none" stroke-width="1" stroke-linejoin="round"/>
<path d="M 119.0,238.0 L 120.276,245.653" fill="none" stroke="#007f86" stroke-width="1.8" stroke-dasharray=""/>
<polygon points="120.993,249.959 118.043,245.534 122.348,244.816" fill="#007f86" stroke="none" stroke-width="1" stroke-linejoin="round"/>
<path d="M 150.0,238.0 L 152.551,245.653" fill="none" stroke="#007f86" stroke-width="1.8" stroke-dasharray=""/>
<polygon points="153.986,249.959 150.239,245.893 154.544,244.458" fill="#007f86" stroke="none" stroke-width="1" stroke-linejoin="round"/>
<path d="M 181.0,238.0 L 184.827,245.653" fill="none" stroke="#007f86" stroke-width="1.8" stroke-dasharray=""/>
<polygon points="186.979,249.959 182.435,246.251 186.74,244.099" fill="#007f86" stroke="none" stroke-width="1" stroke-linejoin="round"/>
<path d="M 212.0,238.0 L 217.102,245.653" fill="none" stroke="#007f86" stroke-width="1.8" stroke-dasharray=""/>
<polygon points="219.972,249.959 214.631,246.61 218.936,243.74" fill="#007f86" stroke="none" stroke-width="1" stroke-linejoin="round"/>
<path d="M 243.0,238.0 L 249.508,245.81" fill="none" stroke="#007f86" stroke-width="1.8" stroke-dasharray=""/>
<polygon points="252.965,249.959 247.05,247.078 251.199,243.621" fill="#007f86" stroke="none" stroke-width="1" stroke-linejoin="round"/>
<path d="M 119.0,210.0 L 120.276,216.378" fill="none" stroke="#007f86" stroke-width="1.8" stroke-dasharray=""/>
<polygon points="120.993,219.965 118.402,216.338 121.99,215.621" fill="#007f86" stroke="none" stroke-width="1" stroke-linejoin="round"/>
<path d="M 150.0,210.0 L 152.551,216.378" fill="none" stroke="#007f86" stroke-width="1.8" stroke-dasharray=""/>
<polygon points="153.986,219.965 150.598,216.697 154.185,215.262" fill="#007f86" stroke="none" stroke-width="1" stroke-linejoin="round"/>
<path d="M 181.0,210.0 L 184.827,216.378" fill="none" stroke="#007f86" stroke-width="1.8" stroke-dasharray=""/>
<polygon points="186.979,219.965 182.794,217.056 186.381,214.903" fill="#007f86" stroke="none" stroke-width="1" stroke-linejoin="round"/>
<path d="M 212.0,210.0 L 217.102,216.378" fill="none" stroke="#007f86" stroke-width="1.8" stroke-dasharray=""/>
<polygon points="219.972,219.965 214.99,217.414 218.577,214.544" fill="#007f86" stroke="none" stroke-width="1" stroke-linejoin="round"/>
<path d="M 119.0,182.0 L 120.276,187.102" fill="none" stroke="#007f86" stroke-width="1.8" stroke-dasharray=""/>
<polygon points="120.993,189.972 118.761,187.142 121.631,186.425" fill="#007f86" stroke="none" stroke-width="1" stroke-linejoin="round"/>
<path d="M 150.0,182.0 L 152.551,187.102" fill="none" stroke="#007f86" stroke-width="1.8" stroke-dasharray=""/>
<polygon points="153.986,189.972 150.957,187.501 153.827,186.066" fill="#007f86" stroke="none" stroke-width="1" stroke-linejoin="round"/>
<path d="M 181.0,182.0 L 184.827,187.102" fill="none" stroke="#007f86" stroke-width="1.8" stroke-dasharray=""/>
<polygon points="186.979,189.972 183.153,187.86 186.023,185.707" fill="#007f86" stroke="none" stroke-width="1" stroke-linejoin="round"/>
<path d="M 119.0,154.0 L 120.276,157.827" fill="none" stroke="#007f86" stroke-width="1.8" stroke-dasharray=""/>
<polygon points="120.993,159.979 119.12,157.946 121.272,157.229" fill="#007f86" stroke="none" stroke-width="1" stroke-linejoin="round"/>
<path d="M 150.0,154.0 L 152.551,157.827" fill="none" stroke="#007f86" stroke-width="1.8" stroke-dasharray=""/>
<polygon points="153.986,159.979 151.315,158.305 153.468,156.87" fill="#007f86" stroke="none" stroke-width="1" stroke-linejoin="round"/>
<path d="M 119.0,126.0 L 120.276,128.551" fill="none" stroke="#007f86" stroke-width="1.337006434874771" stroke-dasharray=""/>
<polygon points="120.993,129.986 119.478,128.75 120.913,128.033" fill="#007f86" stroke="none" stroke-width="1" stroke-linejoin="round"/>
<text x="92.0" y="378.0" fill="#607782" font-size="13" text-anchor="start">0</text>
<text x="405.0" y="364.0" fill="#607782" font-size="15" text-anchor="start">x</text>
<text x="73.0" y="64.0" fill="#607782" font-size="15" text-anchor="start">y</text>
<path d="M 100.0,403.0 L 118.6,403.0" fill="none" stroke="#007f86" stroke-width="2.0" stroke-dasharray=""/>
<polygon points="124.0,403.0 118.0,405.7 118.0,400.3" fill="#007f86" stroke="none" stroke-width="1" stroke-linejoin="round"/>
<text x="136.0" y="408.0" fill="#607782" font-size="13" text-anchor="start">1.204 field units</text>
<text x="585.0" y="34.0" fill="#243944" font-size="17" text-anchor="start">Degrees of freedom</text>
<polygon points="875.0,286.0 630.0,86.0 630.0,286.0" fill="#f7fafb" stroke="#d5e0e5" stroke-width="2" stroke-linejoin="round"/>
<text x="865.0" y="308.0" fill="#607782" font-size="11" text-anchor="start">v1</text>
<text x="620.0" y="108.0" fill="#607782" font-size="11" text-anchor="start">v2</text>
<text x="620.0" y="308.0" fill="#607782" font-size="11" text-anchor="start">v3</text>
<path d="M 752.5,186.0 L 766.359,172.141" fill="none" stroke="#007f86" stroke-width="2.0" stroke-dasharray=""/>
<polygon points="770.178,168.322 767.844,174.474 764.026,170.656" fill="#007f86" stroke="none" stroke-width="1" stroke-linejoin="round"/>
<text x="778.178" y="163.322" fill="#007f86" font-size="15" text-anchor="start">1</text>
<path d="M 630.0,186.0 L 610.4,186.0" fill="none" stroke="#007f86" stroke-width="2.0" stroke-dasharray=""/>
<polygon points="605.0,186.0 611.0,183.3 611.0,188.7" fill="#007f86" stroke="none" stroke-width="1" stroke-linejoin="round"/>
<text x="613.0" y="181.0" fill="#007f86" font-size="15" text-anchor="start">2</text>
<path d="M 752.5,286.0 L 752.5,305.6" fill="none" stroke="#cf6943" stroke-width="3.5" stroke-dasharray=""/>
<polygon points="752.5,311.0 749.8,305.0 755.2,305.0" fill="#cf6943" stroke="none" stroke-width="1" stroke-linejoin="round"/>
<text x="760.5" y="306.0" fill="#cf6943" font-size="15" text-anchor="start">3</text>
<text x="585.0" y="338.0" fill="#607782" font-size="13" text-anchor="start">Arrows mark moments, not sampling points.</text>
<text x="585.0" y="361.0" fill="#607782" font-size="13" text-anchor="start">Ferrite local numbering · reference cell</text>
</g></svg>
